<mxfile host="app.diagrams.net" modified="2022-02-22T11:25:08.419Z" agent="5.0 (Macintosh; Intel Mac OS X 10_15_7) AppleWebKit/605.1.15 (KHTML, like Gecko) Version/15.3 Safari/605.1.15" etag="ORNhp_p1L2d1n-2wDk5y" version="16.5.4" type="github" pages="4">
  <diagram id="R2lEEEUBdFMjLlhIrx00" name="Page-1">
    <mxGraphModel dx="807" dy="524" grid="1" gridSize="10" guides="1" tooltips="1" connect="1" arrows="1" fold="1" page="1" pageScale="1" pageWidth="850" pageHeight="1100" math="0" shadow="0" extFonts="Permanent Marker^https://fonts.googleapis.com/css?family=Permanent+Marker">
      <root>
        <mxCell id="0" />
        <mxCell id="1" parent="0" />
        <mxCell id="C-vyLk0tnHw3VtMMgP7b-1" value="" style="edgeStyle=entityRelationEdgeStyle;endArrow=ERzeroToMany;startArrow=ERone;endFill=1;startFill=0;" parent="1" source="C-vyLk0tnHw3VtMMgP7b-24" target="C-vyLk0tnHw3VtMMgP7b-6" edge="1">
          <mxGeometry width="100" height="100" relative="1" as="geometry">
            <mxPoint x="340" y="720" as="sourcePoint" />
            <mxPoint x="440" y="620" as="targetPoint" />
          </mxGeometry>
        </mxCell>
        <mxCell id="C-vyLk0tnHw3VtMMgP7b-12" value="" style="edgeStyle=entityRelationEdgeStyle;endArrow=ERzeroToMany;startArrow=ERone;endFill=1;startFill=0;" parent="1" source="C-vyLk0tnHw3VtMMgP7b-3" target="C-vyLk0tnHw3VtMMgP7b-17" edge="1">
          <mxGeometry width="100" height="100" relative="1" as="geometry">
            <mxPoint x="400" y="180" as="sourcePoint" />
            <mxPoint x="460" y="205" as="targetPoint" />
          </mxGeometry>
        </mxCell>
        <mxCell id="C-vyLk0tnHw3VtMMgP7b-2" value="Orders" style="shape=table;startSize=30;container=1;collapsible=1;childLayout=tableLayout;fixedRows=1;rowLines=0;fontStyle=1;align=center;resizeLast=1;" parent="1" vertex="1">
          <mxGeometry x="450" y="120" width="250" height="130" as="geometry" />
        </mxCell>
        <mxCell id="C-vyLk0tnHw3VtMMgP7b-3" value="" style="shape=partialRectangle;collapsible=0;dropTarget=0;pointerEvents=0;fillColor=none;points=[[0,0.5],[1,0.5]];portConstraint=eastwest;top=0;left=0;right=0;bottom=1;" parent="C-vyLk0tnHw3VtMMgP7b-2" vertex="1">
          <mxGeometry y="30" width="250" height="30" as="geometry" />
        </mxCell>
        <mxCell id="C-vyLk0tnHw3VtMMgP7b-4" value="PK" style="shape=partialRectangle;overflow=hidden;connectable=0;fillColor=none;top=0;left=0;bottom=0;right=0;fontStyle=1;" parent="C-vyLk0tnHw3VtMMgP7b-3" vertex="1">
          <mxGeometry width="30" height="30" as="geometry" />
        </mxCell>
        <mxCell id="C-vyLk0tnHw3VtMMgP7b-5" value="order_id int NOT NULL " style="shape=partialRectangle;overflow=hidden;connectable=0;fillColor=none;top=0;left=0;bottom=0;right=0;align=left;spacingLeft=6;fontStyle=5;" parent="C-vyLk0tnHw3VtMMgP7b-3" vertex="1">
          <mxGeometry x="30" width="220" height="30" as="geometry" />
        </mxCell>
        <mxCell id="C-vyLk0tnHw3VtMMgP7b-6" value="" style="shape=partialRectangle;collapsible=0;dropTarget=0;pointerEvents=0;fillColor=none;points=[[0,0.5],[1,0.5]];portConstraint=eastwest;top=0;left=0;right=0;bottom=0;" parent="C-vyLk0tnHw3VtMMgP7b-2" vertex="1">
          <mxGeometry y="60" width="250" height="30" as="geometry" />
        </mxCell>
        <mxCell id="C-vyLk0tnHw3VtMMgP7b-7" value="FK1" style="shape=partialRectangle;overflow=hidden;connectable=0;fillColor=none;top=0;left=0;bottom=0;right=0;" parent="C-vyLk0tnHw3VtMMgP7b-6" vertex="1">
          <mxGeometry width="30" height="30" as="geometry" />
        </mxCell>
        <mxCell id="C-vyLk0tnHw3VtMMgP7b-8" value="customer_id int NOT NULL" style="shape=partialRectangle;overflow=hidden;connectable=0;fillColor=none;top=0;left=0;bottom=0;right=0;align=left;spacingLeft=6;" parent="C-vyLk0tnHw3VtMMgP7b-6" vertex="1">
          <mxGeometry x="30" width="220" height="30" as="geometry" />
        </mxCell>
        <mxCell id="C-vyLk0tnHw3VtMMgP7b-9" value="" style="shape=partialRectangle;collapsible=0;dropTarget=0;pointerEvents=0;fillColor=none;points=[[0,0.5],[1,0.5]];portConstraint=eastwest;top=0;left=0;right=0;bottom=0;" parent="C-vyLk0tnHw3VtMMgP7b-2" vertex="1">
          <mxGeometry y="90" width="250" height="30" as="geometry" />
        </mxCell>
        <mxCell id="C-vyLk0tnHw3VtMMgP7b-10" value="" style="shape=partialRectangle;overflow=hidden;connectable=0;fillColor=none;top=0;left=0;bottom=0;right=0;" parent="C-vyLk0tnHw3VtMMgP7b-9" vertex="1">
          <mxGeometry width="30" height="30" as="geometry" />
        </mxCell>
        <mxCell id="C-vyLk0tnHw3VtMMgP7b-11" value="order_date date NOT NULL" style="shape=partialRectangle;overflow=hidden;connectable=0;fillColor=none;top=0;left=0;bottom=0;right=0;align=left;spacingLeft=6;" parent="C-vyLk0tnHw3VtMMgP7b-9" vertex="1">
          <mxGeometry x="30" width="220" height="30" as="geometry" />
        </mxCell>
        <mxCell id="C-vyLk0tnHw3VtMMgP7b-13" value="Shipments" style="shape=table;startSize=30;container=1;collapsible=1;childLayout=tableLayout;fixedRows=1;rowLines=0;fontStyle=1;align=center;resizeLast=1;" parent="1" vertex="1">
          <mxGeometry x="450" y="280" width="250" height="130" as="geometry" />
        </mxCell>
        <mxCell id="C-vyLk0tnHw3VtMMgP7b-14" value="" style="shape=partialRectangle;collapsible=0;dropTarget=0;pointerEvents=0;fillColor=none;points=[[0,0.5],[1,0.5]];portConstraint=eastwest;top=0;left=0;right=0;bottom=1;" parent="C-vyLk0tnHw3VtMMgP7b-13" vertex="1">
          <mxGeometry y="30" width="250" height="30" as="geometry" />
        </mxCell>
        <mxCell id="C-vyLk0tnHw3VtMMgP7b-15" value="PK" style="shape=partialRectangle;overflow=hidden;connectable=0;fillColor=none;top=0;left=0;bottom=0;right=0;fontStyle=1;" parent="C-vyLk0tnHw3VtMMgP7b-14" vertex="1">
          <mxGeometry width="30" height="30" as="geometry" />
        </mxCell>
        <mxCell id="C-vyLk0tnHw3VtMMgP7b-16" value="shipment_id int NOT NULL " style="shape=partialRectangle;overflow=hidden;connectable=0;fillColor=none;top=0;left=0;bottom=0;right=0;align=left;spacingLeft=6;fontStyle=5;" parent="C-vyLk0tnHw3VtMMgP7b-14" vertex="1">
          <mxGeometry x="30" width="220" height="30" as="geometry" />
        </mxCell>
        <mxCell id="C-vyLk0tnHw3VtMMgP7b-17" value="" style="shape=partialRectangle;collapsible=0;dropTarget=0;pointerEvents=0;fillColor=none;points=[[0,0.5],[1,0.5]];portConstraint=eastwest;top=0;left=0;right=0;bottom=0;" parent="C-vyLk0tnHw3VtMMgP7b-13" vertex="1">
          <mxGeometry y="60" width="250" height="30" as="geometry" />
        </mxCell>
        <mxCell id="C-vyLk0tnHw3VtMMgP7b-18" value="FK1" style="shape=partialRectangle;overflow=hidden;connectable=0;fillColor=none;top=0;left=0;bottom=0;right=0;" parent="C-vyLk0tnHw3VtMMgP7b-17" vertex="1">
          <mxGeometry width="30" height="30" as="geometry" />
        </mxCell>
        <mxCell id="C-vyLk0tnHw3VtMMgP7b-19" value="order_id int NOT NULL" style="shape=partialRectangle;overflow=hidden;connectable=0;fillColor=none;top=0;left=0;bottom=0;right=0;align=left;spacingLeft=6;" parent="C-vyLk0tnHw3VtMMgP7b-17" vertex="1">
          <mxGeometry x="30" width="220" height="30" as="geometry" />
        </mxCell>
        <mxCell id="C-vyLk0tnHw3VtMMgP7b-20" value="" style="shape=partialRectangle;collapsible=0;dropTarget=0;pointerEvents=0;fillColor=none;points=[[0,0.5],[1,0.5]];portConstraint=eastwest;top=0;left=0;right=0;bottom=0;" parent="C-vyLk0tnHw3VtMMgP7b-13" vertex="1">
          <mxGeometry y="90" width="250" height="30" as="geometry" />
        </mxCell>
        <mxCell id="C-vyLk0tnHw3VtMMgP7b-21" value="" style="shape=partialRectangle;overflow=hidden;connectable=0;fillColor=none;top=0;left=0;bottom=0;right=0;" parent="C-vyLk0tnHw3VtMMgP7b-20" vertex="1">
          <mxGeometry width="30" height="30" as="geometry" />
        </mxCell>
        <mxCell id="C-vyLk0tnHw3VtMMgP7b-22" value="shipment_date date NOT NULL" style="shape=partialRectangle;overflow=hidden;connectable=0;fillColor=none;top=0;left=0;bottom=0;right=0;align=left;spacingLeft=6;" parent="C-vyLk0tnHw3VtMMgP7b-20" vertex="1">
          <mxGeometry x="30" width="220" height="30" as="geometry" />
        </mxCell>
        <mxCell id="C-vyLk0tnHw3VtMMgP7b-23" value="Customers" style="shape=table;startSize=30;container=1;collapsible=1;childLayout=tableLayout;fixedRows=1;rowLines=0;fontStyle=1;align=center;resizeLast=1;" parent="1" vertex="1">
          <mxGeometry x="120" y="120" width="250" height="100" as="geometry" />
        </mxCell>
        <mxCell id="C-vyLk0tnHw3VtMMgP7b-24" value="" style="shape=partialRectangle;collapsible=0;dropTarget=0;pointerEvents=0;fillColor=none;points=[[0,0.5],[1,0.5]];portConstraint=eastwest;top=0;left=0;right=0;bottom=1;" parent="C-vyLk0tnHw3VtMMgP7b-23" vertex="1">
          <mxGeometry y="30" width="250" height="30" as="geometry" />
        </mxCell>
        <mxCell id="C-vyLk0tnHw3VtMMgP7b-25" value="PK" style="shape=partialRectangle;overflow=hidden;connectable=0;fillColor=none;top=0;left=0;bottom=0;right=0;fontStyle=1;" parent="C-vyLk0tnHw3VtMMgP7b-24" vertex="1">
          <mxGeometry width="30" height="30" as="geometry" />
        </mxCell>
        <mxCell id="C-vyLk0tnHw3VtMMgP7b-26" value="customer_id int NOT NULL " style="shape=partialRectangle;overflow=hidden;connectable=0;fillColor=none;top=0;left=0;bottom=0;right=0;align=left;spacingLeft=6;fontStyle=5;" parent="C-vyLk0tnHw3VtMMgP7b-24" vertex="1">
          <mxGeometry x="30" width="220" height="30" as="geometry" />
        </mxCell>
        <mxCell id="C-vyLk0tnHw3VtMMgP7b-27" value="" style="shape=partialRectangle;collapsible=0;dropTarget=0;pointerEvents=0;fillColor=none;points=[[0,0.5],[1,0.5]];portConstraint=eastwest;top=0;left=0;right=0;bottom=0;" parent="C-vyLk0tnHw3VtMMgP7b-23" vertex="1">
          <mxGeometry y="60" width="250" height="30" as="geometry" />
        </mxCell>
        <mxCell id="C-vyLk0tnHw3VtMMgP7b-28" value="" style="shape=partialRectangle;overflow=hidden;connectable=0;fillColor=none;top=0;left=0;bottom=0;right=0;" parent="C-vyLk0tnHw3VtMMgP7b-27" vertex="1">
          <mxGeometry width="30" height="30" as="geometry" />
        </mxCell>
        <mxCell id="C-vyLk0tnHw3VtMMgP7b-29" value="customer_name char(50) NOT NULL" style="shape=partialRectangle;overflow=hidden;connectable=0;fillColor=none;top=0;left=0;bottom=0;right=0;align=left;spacingLeft=6;" parent="C-vyLk0tnHw3VtMMgP7b-27" vertex="1">
          <mxGeometry x="30" width="220" height="30" as="geometry" />
        </mxCell>
      </root>
    </mxGraphModel>
  </diagram>
  <diagram id="K5YcyTkee7G7o3Wc4Lfg" name="Page-2">
    <mxGraphModel dx="1351" dy="961" grid="0" gridSize="10" guides="1" tooltips="1" connect="1" arrows="1" fold="1" page="1" pageScale="1" pageWidth="1200" pageHeight="1600" math="0" shadow="0">
      <root>
        <mxCell id="EDEc2YnVjNELmM7PZz11-0" />
        <mxCell id="EDEc2YnVjNELmM7PZz11-1" parent="EDEc2YnVjNELmM7PZz11-0" />
        <mxCell id="EDEc2YnVjNELmM7PZz11-2" value="&lt;font style=&quot;font-size: 14px&quot;&gt;Customer&amp;nbsp;&lt;br&gt;Address&lt;/font&gt;" style="rounded=0;whiteSpace=wrap;html=1;fillColor=#FFE45E;strokeColor=#FF6392;fontColor=#5AA9E6;" vertex="1" parent="EDEc2YnVjNELmM7PZz11-1">
          <mxGeometry x="284" y="152" width="120" height="60" as="geometry" />
        </mxCell>
        <mxCell id="EDEc2YnVjNELmM7PZz11-23" style="edgeStyle=orthogonalEdgeStyle;rounded=0;orthogonalLoop=1;jettySize=auto;html=1;exitX=0.5;exitY=0;exitDx=0;exitDy=0;fontSize=14;elbow=vertical;startArrow=classic;startFill=1;endArrow=none;endFill=0;strokeColor=#FF6392;fontColor=#5AA9E6;" edge="1" parent="EDEc2YnVjNELmM7PZz11-1" source="EDEc2YnVjNELmM7PZz11-3">
          <mxGeometry relative="1" as="geometry">
            <mxPoint x="464" y="93" as="targetPoint" />
          </mxGeometry>
        </mxCell>
        <mxCell id="EDEc2YnVjNELmM7PZz11-3" value="&lt;font style=&quot;font-size: 14px&quot;&gt;Customer&amp;nbsp;&lt;br&gt;Name&amp;nbsp;&lt;/font&gt;" style="rounded=0;whiteSpace=wrap;html=1;fillColor=#FFE45E;strokeColor=#FF6392;fontColor=#5AA9E6;" vertex="1" parent="EDEc2YnVjNELmM7PZz11-1">
          <mxGeometry x="404" y="152" width="120" height="60" as="geometry" />
        </mxCell>
        <mxCell id="EDEc2YnVjNELmM7PZz11-4" value="&lt;b&gt;&lt;u&gt;&lt;font style=&quot;font-size: 16px&quot;&gt;Customer ID&lt;/font&gt;&lt;/u&gt;&lt;/b&gt;" style="rounded=0;whiteSpace=wrap;html=1;fillColor=#FFE45E;strokeColor=#FF6392;fontColor=#5AA9E6;" vertex="1" parent="EDEc2YnVjNELmM7PZz11-1">
          <mxGeometry x="524" y="152" width="120" height="60" as="geometry" />
        </mxCell>
        <mxCell id="EDEc2YnVjNELmM7PZz11-26" style="edgeStyle=orthogonalEdgeStyle;rounded=0;orthogonalLoop=1;jettySize=auto;html=1;exitX=0.5;exitY=1;exitDx=0;exitDy=0;entryX=0.5;entryY=0;entryDx=0;entryDy=0;fontSize=14;startArrow=none;startFill=0;endArrow=classic;endFill=1;elbow=vertical;strokeColor=#FF6392;fontColor=#5AA9E6;" edge="1" parent="EDEc2YnVjNELmM7PZz11-1" source="EDEc2YnVjNELmM7PZz11-6" target="EDEc2YnVjNELmM7PZz11-11">
          <mxGeometry relative="1" as="geometry">
            <Array as="points">
              <mxPoint x="515" y="453" />
              <mxPoint x="584" y="453" />
            </Array>
          </mxGeometry>
        </mxCell>
        <mxCell id="EDEc2YnVjNELmM7PZz11-27" style="edgeStyle=orthogonalEdgeStyle;rounded=0;orthogonalLoop=1;jettySize=auto;html=1;exitX=0.5;exitY=1;exitDx=0;exitDy=0;entryX=0.5;entryY=0;entryDx=0;entryDy=0;fontSize=14;startArrow=none;startFill=0;endArrow=classic;endFill=1;elbow=vertical;strokeColor=#FF6392;fontColor=#5AA9E6;" edge="1" parent="EDEc2YnVjNELmM7PZz11-1" source="EDEc2YnVjNELmM7PZz11-6" target="EDEc2YnVjNELmM7PZz11-10">
          <mxGeometry relative="1" as="geometry" />
        </mxCell>
        <mxCell id="EDEc2YnVjNELmM7PZz11-30" style="edgeStyle=elbowEdgeStyle;rounded=0;orthogonalLoop=1;jettySize=auto;html=1;exitX=0.5;exitY=0;exitDx=0;exitDy=0;fontSize=14;startArrow=none;startFill=0;endArrow=classic;endFill=1;elbow=vertical;entryX=0.5;entryY=0;entryDx=0;entryDy=0;strokeColor=#FF6392;fontColor=#5AA9E6;" edge="1" parent="EDEc2YnVjNELmM7PZz11-1" source="EDEc2YnVjNELmM7PZz11-6" target="EDEc2YnVjNELmM7PZz11-7">
          <mxGeometry relative="1" as="geometry">
            <mxPoint x="272" y="229" as="targetPoint" />
            <Array as="points">
              <mxPoint x="393" y="243" />
            </Array>
          </mxGeometry>
        </mxCell>
        <mxCell id="EDEc2YnVjNELmM7PZz11-6" value="&lt;font size=&quot;1&quot;&gt;&lt;b&gt;&lt;u style=&quot;font-size: 16px&quot;&gt;Account ID&lt;/u&gt;&lt;/b&gt;&lt;/font&gt;" style="rounded=0;whiteSpace=wrap;html=1;fillColor=#FFE45E;strokeColor=#FF6392;fontColor=#5AA9E6;" vertex="1" parent="EDEc2YnVjNELmM7PZz11-1">
          <mxGeometry x="455" y="316" width="120" height="60" as="geometry" />
        </mxCell>
        <mxCell id="EDEc2YnVjNELmM7PZz11-7" value="&lt;font style=&quot;font-size: 14px&quot;&gt;Card&amp;nbsp;&lt;br&gt;Type&lt;/font&gt;" style="rounded=0;whiteSpace=wrap;html=1;fillColor=#FFE45E;strokeColor=#FF6392;fontColor=#5AA9E6;" vertex="1" parent="EDEc2YnVjNELmM7PZz11-1">
          <mxGeometry x="215" y="316" width="120" height="60" as="geometry" />
        </mxCell>
        <mxCell id="EDEc2YnVjNELmM7PZz11-31" style="edgeStyle=elbowEdgeStyle;rounded=0;orthogonalLoop=1;jettySize=auto;elbow=vertical;html=1;exitX=0.5;exitY=0;exitDx=0;exitDy=0;fontSize=14;startArrow=classic;startFill=1;endArrow=none;endFill=0;strokeColor=#FF6392;fontColor=#5AA9E6;" edge="1" parent="EDEc2YnVjNELmM7PZz11-1" source="EDEc2YnVjNELmM7PZz11-8">
          <mxGeometry relative="1" as="geometry">
            <mxPoint x="395" y="242" as="targetPoint" />
          </mxGeometry>
        </mxCell>
        <mxCell id="EDEc2YnVjNELmM7PZz11-8" value="&lt;font style=&quot;font-size: 14px&quot;&gt;Expiry&lt;br&gt;Date&lt;/font&gt;" style="rounded=0;whiteSpace=wrap;html=1;fillColor=#FFE45E;strokeColor=#FF6392;fontColor=#5AA9E6;" vertex="1" parent="EDEc2YnVjNELmM7PZz11-1">
          <mxGeometry x="335" y="316" width="120" height="60" as="geometry" />
        </mxCell>
        <mxCell id="EDEc2YnVjNELmM7PZz11-9" value="&lt;font style=&quot;font-size: 14px&quot;&gt;Bank&amp;nbsp;&lt;br&gt;Number&amp;nbsp;&lt;/font&gt;" style="rounded=0;whiteSpace=wrap;html=1;fillColor=#FFE45E;strokeColor=#FF6392;fontColor=#5AA9E6;" vertex="1" parent="EDEc2YnVjNELmM7PZz11-1">
          <mxGeometry x="164" y="529" width="120" height="60" as="geometry" />
        </mxCell>
        <mxCell id="EDEc2YnVjNELmM7PZz11-10" value="&lt;b&gt;&lt;u style=&quot;font-size: 16px&quot;&gt;Account ID&lt;/u&gt;&lt;/b&gt;" style="rounded=0;whiteSpace=wrap;html=1;fillColor=#FFE45E;strokeColor=#FF6392;fontColor=#5AA9E6;" vertex="1" parent="EDEc2YnVjNELmM7PZz11-1">
          <mxGeometry x="284" y="529" width="120" height="60" as="geometry" />
        </mxCell>
        <mxCell id="EDEc2YnVjNELmM7PZz11-11" value="&lt;b&gt;&lt;u style=&quot;font-size: 16px&quot;&gt;Account ID&lt;/u&gt;&lt;/b&gt;" style="rounded=0;whiteSpace=wrap;html=1;fillColor=#FFE45E;strokeColor=#FF6392;fontColor=#5AA9E6;" vertex="1" parent="EDEc2YnVjNELmM7PZz11-1">
          <mxGeometry x="524" y="529" width="120" height="60" as="geometry" />
        </mxCell>
        <mxCell id="EDEc2YnVjNELmM7PZz11-12" value="&lt;font style=&quot;font-size: 14px&quot;&gt;Curent&amp;nbsp;&lt;br&gt;Balance&lt;/font&gt;" style="rounded=0;whiteSpace=wrap;html=1;fillColor=#FFE45E;strokeColor=#FF6392;fontColor=#5AA9E6;" vertex="1" parent="EDEc2YnVjNELmM7PZz11-1">
          <mxGeometry x="644" y="529" width="120" height="60" as="geometry" />
        </mxCell>
        <mxCell id="EDEc2YnVjNELmM7PZz11-34" style="edgeStyle=elbowEdgeStyle;rounded=0;orthogonalLoop=1;jettySize=auto;elbow=vertical;html=1;exitX=0.5;exitY=0;exitDx=0;exitDy=0;fontSize=14;startArrow=classic;startFill=1;endArrow=none;endFill=0;entryX=0.5;entryY=0;entryDx=0;entryDy=0;strokeColor=#FF6392;fontColor=#5AA9E6;" edge="1" parent="EDEc2YnVjNELmM7PZz11-1" source="EDEc2YnVjNELmM7PZz11-13" target="EDEc2YnVjNELmM7PZz11-17">
          <mxGeometry relative="1" as="geometry">
            <mxPoint x="835" y="612" as="targetPoint" />
            <Array as="points">
              <mxPoint x="529" y="665" />
            </Array>
          </mxGeometry>
        </mxCell>
        <mxCell id="EDEc2YnVjNELmM7PZz11-13" value="&lt;font style=&quot;font-size: 14px&quot;&gt;Amount&amp;nbsp;&lt;/font&gt;" style="rounded=0;whiteSpace=wrap;html=1;fillColor=#FFE45E;strokeColor=#FF6392;fontColor=#5AA9E6;" vertex="1" parent="EDEc2YnVjNELmM7PZz11-1">
          <mxGeometry x="164" y="717" width="120" height="60" as="geometry" />
        </mxCell>
        <mxCell id="EDEc2YnVjNELmM7PZz11-38" style="edgeStyle=none;rounded=0;orthogonalLoop=1;jettySize=auto;html=1;exitX=0.5;exitY=0;exitDx=0;exitDy=0;fontSize=14;startArrow=none;startFill=0;endArrow=none;endFill=0;elbow=vertical;strokeColor=#FF6392;fontColor=#5AA9E6;" edge="1" parent="EDEc2YnVjNELmM7PZz11-1" source="EDEc2YnVjNELmM7PZz11-14">
          <mxGeometry relative="1" as="geometry">
            <mxPoint x="344.7142857142858" y="664.7142857142858" as="targetPoint" />
          </mxGeometry>
        </mxCell>
        <mxCell id="EDEc2YnVjNELmM7PZz11-14" value="&lt;b&gt;&lt;u&gt;&lt;font style=&quot;font-size: 16px&quot;&gt;Charger&amp;nbsp;Time&amp;nbsp;&lt;/font&gt;&lt;/u&gt;&lt;/b&gt;" style="rounded=0;whiteSpace=wrap;html=1;fillColor=#FFE45E;strokeColor=#FF6392;fontColor=#5AA9E6;" vertex="1" parent="EDEc2YnVjNELmM7PZz11-1">
          <mxGeometry x="284" y="717" width="120" height="60" as="geometry" />
        </mxCell>
        <mxCell id="EDEc2YnVjNELmM7PZz11-37" style="edgeStyle=none;rounded=0;orthogonalLoop=1;jettySize=auto;html=1;exitX=0.5;exitY=0;exitDx=0;exitDy=0;fontSize=14;startArrow=none;startFill=0;endArrow=none;endFill=0;elbow=vertical;strokeColor=#FF6392;fontColor=#5AA9E6;" edge="1" parent="EDEc2YnVjNELmM7PZz11-1" source="EDEc2YnVjNELmM7PZz11-15">
          <mxGeometry relative="1" as="geometry">
            <mxPoint x="464.7142857142858" y="663.2857142857144" as="targetPoint" />
          </mxGeometry>
        </mxCell>
        <mxCell id="EDEc2YnVjNELmM7PZz11-15" value="&lt;b&gt;&lt;u&gt;&lt;font style=&quot;font-size: 16px&quot;&gt;Charger Date&amp;nbsp;&lt;/font&gt;&lt;/u&gt;&lt;/b&gt;" style="rounded=0;whiteSpace=wrap;html=1;fillColor=#FFE45E;strokeColor=#FF6392;fontColor=#5AA9E6;" vertex="1" parent="EDEc2YnVjNELmM7PZz11-1">
          <mxGeometry x="404" y="717" width="120" height="60" as="geometry" />
        </mxCell>
        <mxCell id="EDEc2YnVjNELmM7PZz11-28" style="edgeStyle=orthogonalEdgeStyle;rounded=0;orthogonalLoop=1;jettySize=auto;html=1;exitX=0.5;exitY=0;exitDx=0;exitDy=0;fontSize=14;startArrow=none;startFill=0;endArrow=classic;endFill=1;elbow=vertical;strokeColor=#FF6392;fontColor=#5AA9E6;" edge="1" parent="EDEc2YnVjNELmM7PZz11-1" source="EDEc2YnVjNELmM7PZz11-16">
          <mxGeometry relative="1" as="geometry">
            <mxPoint x="584.7142857142858" y="590.4285714285716" as="targetPoint" />
          </mxGeometry>
        </mxCell>
        <mxCell id="EDEc2YnVjNELmM7PZz11-36" style="rounded=0;orthogonalLoop=1;jettySize=auto;elbow=vertical;html=1;exitX=0.75;exitY=0;exitDx=0;exitDy=0;fontSize=14;startArrow=none;startFill=0;endArrow=none;endFill=0;strokeColor=#FF6392;fontColor=#5AA9E6;" edge="1" parent="EDEc2YnVjNELmM7PZz11-1" source="EDEc2YnVjNELmM7PZz11-16">
          <mxGeometry relative="1" as="geometry">
            <mxPoint x="614.7142857142858" y="663.2857142857144" as="targetPoint" />
          </mxGeometry>
        </mxCell>
        <mxCell id="EDEc2YnVjNELmM7PZz11-16" value="&lt;b&gt;&lt;u style=&quot;font-size: 16px&quot;&gt;Account ID&lt;/u&gt;&lt;/b&gt;" style="rounded=0;whiteSpace=wrap;html=1;fillColor=#FFE45E;strokeColor=#FF6392;fontColor=#5AA9E6;" vertex="1" parent="EDEc2YnVjNELmM7PZz11-1">
          <mxGeometry x="524" y="717" width="120" height="60" as="geometry" />
        </mxCell>
        <mxCell id="EDEc2YnVjNELmM7PZz11-29" style="edgeStyle=orthogonalEdgeStyle;rounded=0;orthogonalLoop=1;jettySize=auto;html=1;exitX=0.5;exitY=1;exitDx=0;exitDy=0;entryX=0.5;entryY=0;entryDx=0;entryDy=0;fontSize=14;startArrow=none;startFill=0;endArrow=classic;endFill=1;elbow=vertical;strokeColor=#FF6392;fontColor=#5AA9E6;" edge="1" parent="EDEc2YnVjNELmM7PZz11-1" source="EDEc2YnVjNELmM7PZz11-17" target="EDEc2YnVjNELmM7PZz11-19">
          <mxGeometry relative="1" as="geometry" />
        </mxCell>
        <mxCell id="EDEc2YnVjNELmM7PZz11-39" value="&lt;font style=&quot;font-size: 16px&quot;&gt;Merchant&amp;nbsp;&lt;/font&gt;" style="edgeLabel;html=1;align=center;verticalAlign=middle;resizable=0;points=[];fontSize=14;fontColor=#5AA9E6;" vertex="1" connectable="0" parent="EDEc2YnVjNELmM7PZz11-29">
          <mxGeometry x="0.2052" y="4" relative="1" as="geometry">
            <mxPoint y="1" as="offset" />
          </mxGeometry>
        </mxCell>
        <mxCell id="EDEc2YnVjNELmM7PZz11-17" value="&lt;b&gt;&lt;u&gt;&lt;font style=&quot;font-size: 16px&quot;&gt;Merchant ID&lt;/font&gt;&lt;/u&gt;&lt;/b&gt;" style="rounded=0;whiteSpace=wrap;html=1;fillColor=#FFE45E;strokeColor=#FF6392;fontColor=#5AA9E6;" vertex="1" parent="EDEc2YnVjNELmM7PZz11-1">
          <mxGeometry x="644" y="717" width="120" height="60" as="geometry" />
        </mxCell>
        <mxCell id="EDEc2YnVjNELmM7PZz11-18" value="&lt;font style=&quot;font-size: 14px&quot;&gt;Merchant&amp;nbsp;&lt;br&gt;Address&lt;/font&gt;" style="rounded=0;whiteSpace=wrap;html=1;fillColor=#FFE45E;strokeColor=#FF6392;fontColor=#5AA9E6;" vertex="1" parent="EDEc2YnVjNELmM7PZz11-1">
          <mxGeometry x="524" y="887" width="120" height="60" as="geometry" />
        </mxCell>
        <mxCell id="EDEc2YnVjNELmM7PZz11-19" value="&lt;b&gt;&lt;u&gt;&lt;font style=&quot;font-size: 16px&quot;&gt;Merchant ID&lt;/font&gt;&lt;/u&gt;&lt;/b&gt;" style="rounded=0;whiteSpace=wrap;html=1;fillColor=#FFE45E;strokeColor=#FF6392;fontColor=#5AA9E6;" vertex="1" parent="EDEc2YnVjNELmM7PZz11-1">
          <mxGeometry x="644" y="887" width="120" height="60" as="geometry" />
        </mxCell>
        <mxCell id="EDEc2YnVjNELmM7PZz11-25" style="edgeStyle=orthogonalEdgeStyle;rounded=0;orthogonalLoop=1;jettySize=auto;html=1;exitX=0.25;exitY=0;exitDx=0;exitDy=0;fontSize=14;startArrow=none;startFill=0;endArrow=classic;endFill=1;elbow=vertical;strokeColor=#FF6392;fontColor=#5AA9E6;" edge="1" parent="EDEc2YnVjNELmM7PZz11-1" source="EDEc2YnVjNELmM7PZz11-20">
          <mxGeometry relative="1" as="geometry">
            <mxPoint x="605" y="211" as="targetPoint" />
          </mxGeometry>
        </mxCell>
        <mxCell id="EDEc2YnVjNELmM7PZz11-32" style="edgeStyle=elbowEdgeStyle;rounded=0;orthogonalLoop=1;jettySize=auto;elbow=vertical;html=1;exitX=0.5;exitY=0;exitDx=0;exitDy=0;fontSize=14;startArrow=classic;startFill=1;endArrow=none;endFill=0;strokeColor=#FF6392;fontColor=#5AA9E6;" edge="1" parent="EDEc2YnVjNELmM7PZz11-1" source="EDEc2YnVjNELmM7PZz11-20">
          <mxGeometry relative="1" as="geometry">
            <mxPoint x="515" y="246" as="targetPoint" />
            <Array as="points">
              <mxPoint x="555" y="246" />
              <mxPoint x="515" y="246" />
              <mxPoint x="536" y="246" />
              <mxPoint x="542" y="246" />
              <mxPoint x="582" y="252" />
            </Array>
          </mxGeometry>
        </mxCell>
        <mxCell id="EDEc2YnVjNELmM7PZz11-20" value="&lt;b&gt;&lt;u&gt;&lt;font style=&quot;font-size: 16px&quot;&gt;Customer ID&lt;/font&gt;&lt;/u&gt;&lt;/b&gt;" style="rounded=0;whiteSpace=wrap;html=1;fillColor=#FFE45E;strokeColor=#FF6392;fontColor=#5AA9E6;" vertex="1" parent="EDEc2YnVjNELmM7PZz11-1">
          <mxGeometry x="575" y="316" width="120" height="60" as="geometry" />
        </mxCell>
        <mxCell id="EDEc2YnVjNELmM7PZz11-21" value="" style="endArrow=classic;html=1;rounded=0;fontSize=14;exitX=0.5;exitY=0;exitDx=0;exitDy=0;elbow=vertical;edgeStyle=orthogonalEdgeStyle;entryX=0.5;entryY=0;entryDx=0;entryDy=0;strokeColor=#FF6392;fontColor=#5AA9E6;" edge="1" parent="EDEc2YnVjNELmM7PZz11-1" source="EDEc2YnVjNELmM7PZz11-4" target="EDEc2YnVjNELmM7PZz11-2">
          <mxGeometry width="50" height="50" relative="1" as="geometry">
            <mxPoint x="518" y="97" as="sourcePoint" />
            <mxPoint x="386" y="36" as="targetPoint" />
            <Array as="points">
              <mxPoint x="584" y="94" />
              <mxPoint x="344" y="94" />
            </Array>
          </mxGeometry>
        </mxCell>
        <mxCell id="EDEc2YnVjNELmM7PZz11-41" value="Charges" style="text;html=1;align=center;verticalAlign=middle;resizable=0;points=[];autosize=1;strokeColor=none;fillColor=none;fontSize=16;fontColor=#5AA9E6;" vertex="1" parent="EDEc2YnVjNELmM7PZz11-1">
          <mxGeometry x="145" y="663" width="70" height="23" as="geometry" />
        </mxCell>
        <mxCell id="EDEc2YnVjNELmM7PZz11-42" value="Debit Card" style="text;html=1;align=center;verticalAlign=middle;resizable=0;points=[];autosize=1;strokeColor=none;fillColor=none;fontSize=16;fontColor=#5AA9E6;" vertex="1" parent="EDEc2YnVjNELmM7PZz11-1">
          <mxGeometry x="232" y="492" width="86" height="23" as="geometry" />
        </mxCell>
        <mxCell id="EDEc2YnVjNELmM7PZz11-43" value="Credit Card" style="text;html=1;align=center;verticalAlign=middle;resizable=0;points=[];autosize=1;strokeColor=none;fillColor=none;fontSize=16;fontColor=#5AA9E6;" vertex="1" parent="EDEc2YnVjNELmM7PZz11-1">
          <mxGeometry x="603" y="492" width="92" height="23" as="geometry" />
        </mxCell>
        <mxCell id="EDEc2YnVjNELmM7PZz11-44" value="Card Account&amp;nbsp;" style="text;html=1;align=center;verticalAlign=middle;resizable=0;points=[];autosize=1;strokeColor=none;fillColor=none;fontSize=16;fontColor=#5AA9E6;" vertex="1" parent="EDEc2YnVjNELmM7PZz11-1">
          <mxGeometry x="607" y="221" width="111" height="23" as="geometry" />
        </mxCell>
        <mxCell id="EDEc2YnVjNELmM7PZz11-45" value="Customer" style="text;html=1;align=center;verticalAlign=middle;resizable=0;points=[];autosize=1;strokeColor=none;fillColor=none;fontSize=16;fontColor=#5AA9E6;" vertex="1" parent="EDEc2YnVjNELmM7PZz11-1">
          <mxGeometry x="590" y="109" width="79" height="23" as="geometry" />
        </mxCell>
      </root>
    </mxGraphModel>
  </diagram>
  <diagram id="qMhKBau0lXXYi1pwvFO9" name="Page-3">
    <mxGraphModel dx="1351" dy="961" grid="0" gridSize="10" guides="1" tooltips="1" connect="1" arrows="1" fold="1" page="1" pageScale="1" pageWidth="1600" pageHeight="1200" background="none" math="0" shadow="0">
      <root>
        <mxCell id="9fgfc-uTjoTx4CT3Glm3-0" />
        <mxCell id="9fgfc-uTjoTx4CT3Glm3-1" parent="9fgfc-uTjoTx4CT3Glm3-0" />
        <mxCell id="9fgfc-uTjoTx4CT3Glm3-15" style="edgeStyle=orthogonalEdgeStyle;curved=0;rounded=1;sketch=0;orthogonalLoop=1;jettySize=auto;html=1;exitX=0.5;exitY=0;exitDx=0;exitDy=0;fontSize=15;fontColor=#5AA9E6;strokeColor=#FF6392;fillColor=#FFE45E;entryX=0.5;entryY=0;entryDx=0;entryDy=0;startArrow=classic;startFill=1;endArrow=none;endFill=0;" edge="1" parent="9fgfc-uTjoTx4CT3Glm3-1" source="9fgfc-uTjoTx4CT3Glm3-2" target="9fgfc-uTjoTx4CT3Glm3-6">
          <mxGeometry relative="1" as="geometry">
            <mxPoint x="628" y="114" as="targetPoint" />
            <Array as="points">
              <mxPoint x="154" y="209" />
              <mxPoint x="634" y="209" />
            </Array>
          </mxGeometry>
        </mxCell>
        <mxCell id="9fgfc-uTjoTx4CT3Glm3-2" value="&lt;font style=&quot;font-size: 15px&quot;&gt;Quantity&lt;/font&gt;" style="rounded=0;whiteSpace=wrap;html=1;sketch=0;fontColor=#5AA9E6;strokeColor=#FF6392;fillColor=#FFE45E;" vertex="1" parent="9fgfc-uTjoTx4CT3Glm3-1">
          <mxGeometry x="94" y="304" width="120" height="60" as="geometry" />
        </mxCell>
        <mxCell id="9fgfc-uTjoTx4CT3Glm3-17" style="edgeStyle=orthogonalEdgeStyle;curved=0;rounded=1;sketch=0;orthogonalLoop=1;jettySize=auto;html=1;exitX=0.5;exitY=0;exitDx=0;exitDy=0;fontSize=15;fontColor=#5AA9E6;startArrow=classic;startFill=1;endArrow=none;endFill=0;strokeColor=#FF6392;fillColor=#FFE45E;" edge="1" parent="9fgfc-uTjoTx4CT3Glm3-1" source="9fgfc-uTjoTx4CT3Glm3-3">
          <mxGeometry relative="1" as="geometry">
            <mxPoint x="274" y="208" as="targetPoint" />
          </mxGeometry>
        </mxCell>
        <mxCell id="9fgfc-uTjoTx4CT3Glm3-3" value="&lt;font style=&quot;font-size: 15px&quot;&gt;Weight&amp;nbsp;&lt;/font&gt;" style="rounded=0;whiteSpace=wrap;html=1;sketch=0;fontColor=#5AA9E6;strokeColor=#FF6392;fillColor=#FFE45E;" vertex="1" parent="9fgfc-uTjoTx4CT3Glm3-1">
          <mxGeometry x="214" y="304" width="120" height="60" as="geometry" />
        </mxCell>
        <mxCell id="9fgfc-uTjoTx4CT3Glm3-18" style="edgeStyle=orthogonalEdgeStyle;curved=0;rounded=1;sketch=0;orthogonalLoop=1;jettySize=auto;html=1;exitX=0.5;exitY=0;exitDx=0;exitDy=0;fontSize=15;fontColor=#5AA9E6;startArrow=classic;startFill=1;endArrow=none;endFill=0;strokeColor=#FF6392;fillColor=#FFE45E;" edge="1" parent="9fgfc-uTjoTx4CT3Glm3-1" source="9fgfc-uTjoTx4CT3Glm3-4">
          <mxGeometry relative="1" as="geometry">
            <mxPoint x="394" y="208" as="targetPoint" />
          </mxGeometry>
        </mxCell>
        <mxCell id="9fgfc-uTjoTx4CT3Glm3-4" value="&lt;font style=&quot;font-size: 15px&quot;&gt;Description&amp;nbsp;&lt;/font&gt;" style="rounded=0;whiteSpace=wrap;html=1;sketch=0;fontColor=#5AA9E6;strokeColor=#FF6392;fillColor=#FFE45E;" vertex="1" parent="9fgfc-uTjoTx4CT3Glm3-1">
          <mxGeometry x="334" y="304" width="120" height="60" as="geometry" />
        </mxCell>
        <mxCell id="9fgfc-uTjoTx4CT3Glm3-19" style="edgeStyle=orthogonalEdgeStyle;curved=0;rounded=1;sketch=0;orthogonalLoop=1;jettySize=auto;html=1;exitX=0.5;exitY=0;exitDx=0;exitDy=0;fontSize=15;fontColor=#5AA9E6;startArrow=classic;startFill=1;endArrow=none;endFill=0;strokeColor=#FF6392;fillColor=#FFE45E;" edge="1" parent="9fgfc-uTjoTx4CT3Glm3-1" source="9fgfc-uTjoTx4CT3Glm3-5">
          <mxGeometry relative="1" as="geometry">
            <mxPoint x="516" y="212" as="targetPoint" />
          </mxGeometry>
        </mxCell>
        <mxCell id="9fgfc-uTjoTx4CT3Glm3-5" value="&lt;font style=&quot;font-size: 15px&quot;&gt;Type&lt;/font&gt;" style="rounded=0;whiteSpace=wrap;html=1;sketch=0;fontColor=#5AA9E6;strokeColor=#FF6392;fillColor=#FFE45E;" vertex="1" parent="9fgfc-uTjoTx4CT3Glm3-1">
          <mxGeometry x="455" y="304" width="120" height="60" as="geometry" />
        </mxCell>
        <mxCell id="9fgfc-uTjoTx4CT3Glm3-6" value="&lt;b style=&quot;font-size: 16px&quot;&gt;&lt;u&gt;Item&lt;br&gt;Number&lt;/u&gt;&lt;/b&gt;" style="rounded=0;whiteSpace=wrap;html=1;sketch=0;fontColor=#5AA9E6;strokeColor=#FF6392;fillColor=#FFE45E;" vertex="1" parent="9fgfc-uTjoTx4CT3Glm3-1">
          <mxGeometry x="574" y="304" width="120" height="60" as="geometry" />
        </mxCell>
        <mxCell id="9fgfc-uTjoTx4CT3Glm3-20" style="edgeStyle=orthogonalEdgeStyle;curved=0;rounded=1;sketch=0;orthogonalLoop=1;jettySize=auto;html=1;exitX=0.5;exitY=1;exitDx=0;exitDy=0;fontSize=15;fontColor=#5AA9E6;startArrow=classic;startFill=1;endArrow=none;endFill=0;strokeColor=#FF6392;fillColor=#FFE45E;entryX=0.5;entryY=1;entryDx=0;entryDy=0;" edge="1" parent="9fgfc-uTjoTx4CT3Glm3-1" source="9fgfc-uTjoTx4CT3Glm3-7" target="9fgfc-uTjoTx4CT3Glm3-8">
          <mxGeometry relative="1" as="geometry">
            <mxPoint x="872" y="446" as="targetPoint" />
            <Array as="points">
              <mxPoint x="754" y="405" />
              <mxPoint x="874" y="405" />
            </Array>
          </mxGeometry>
        </mxCell>
        <mxCell id="9fgfc-uTjoTx4CT3Glm3-7" value="&lt;font style=&quot;font-size: 15px&quot;&gt;Captain Name&amp;nbsp;&lt;/font&gt;" style="rounded=0;whiteSpace=wrap;html=1;sketch=0;fontColor=#5AA9E6;strokeColor=#FF6392;fillColor=#FFE45E;" vertex="1" parent="9fgfc-uTjoTx4CT3Glm3-1">
          <mxGeometry x="694" y="304" width="120" height="60" as="geometry" />
        </mxCell>
        <mxCell id="9fgfc-uTjoTx4CT3Glm3-8" value="&lt;font style=&quot;font-size: 15px&quot;&gt;Captain ID&lt;/font&gt;" style="rounded=0;whiteSpace=wrap;html=1;sketch=0;fontColor=#5AA9E6;strokeColor=#FF6392;fillColor=#FFE45E;" vertex="1" parent="9fgfc-uTjoTx4CT3Glm3-1">
          <mxGeometry x="814" y="304" width="120" height="60" as="geometry" />
        </mxCell>
        <mxCell id="9fgfc-uTjoTx4CT3Glm3-22" style="edgeStyle=orthogonalEdgeStyle;curved=0;rounded=1;sketch=0;orthogonalLoop=1;jettySize=auto;html=1;exitX=0.5;exitY=0;exitDx=0;exitDy=0;fontSize=15;fontColor=#5AA9E6;startArrow=classic;startFill=1;endArrow=none;endFill=0;strokeColor=#FF6392;fillColor=#FFE45E;" edge="1" parent="9fgfc-uTjoTx4CT3Glm3-1" source="9fgfc-uTjoTx4CT3Glm3-9">
          <mxGeometry relative="1" as="geometry">
            <mxPoint x="994" y="247" as="targetPoint" />
          </mxGeometry>
        </mxCell>
        <mxCell id="9fgfc-uTjoTx4CT3Glm3-9" value="&lt;font style=&quot;font-size: 15px&quot;&gt;Ship&lt;br&gt;Number&lt;/font&gt;" style="rounded=0;whiteSpace=wrap;html=1;sketch=0;fontColor=#5AA9E6;strokeColor=#FF6392;fillColor=#FFE45E;" vertex="1" parent="9fgfc-uTjoTx4CT3Glm3-1">
          <mxGeometry x="934" y="304" width="120" height="60" as="geometry" />
        </mxCell>
        <mxCell id="9fgfc-uTjoTx4CT3Glm3-23" style="edgeStyle=orthogonalEdgeStyle;curved=0;rounded=1;sketch=0;orthogonalLoop=1;jettySize=auto;html=1;exitX=0.5;exitY=0;exitDx=0;exitDy=0;fontSize=15;fontColor=#5AA9E6;startArrow=classic;startFill=1;endArrow=none;endFill=0;strokeColor=#FF6392;fillColor=#FFE45E;" edge="1" parent="9fgfc-uTjoTx4CT3Glm3-1" source="9fgfc-uTjoTx4CT3Glm3-10">
          <mxGeometry relative="1" as="geometry">
            <mxPoint x="1113.8095238095239" y="247.1428571428571" as="targetPoint" />
          </mxGeometry>
        </mxCell>
        <mxCell id="9fgfc-uTjoTx4CT3Glm3-10" value="&lt;font style=&quot;font-size: 15px&quot;&gt;Destination&lt;/font&gt;" style="rounded=0;whiteSpace=wrap;html=1;sketch=0;fontColor=#5AA9E6;strokeColor=#FF6392;fillColor=#FFE45E;" vertex="1" parent="9fgfc-uTjoTx4CT3Glm3-1">
          <mxGeometry x="1054" y="304" width="120" height="60" as="geometry" />
        </mxCell>
        <mxCell id="9fgfc-uTjoTx4CT3Glm3-24" style="edgeStyle=orthogonalEdgeStyle;curved=0;rounded=1;sketch=0;orthogonalLoop=1;jettySize=auto;html=1;exitX=0.5;exitY=0;exitDx=0;exitDy=0;fontSize=15;fontColor=#5AA9E6;startArrow=classic;startFill=1;endArrow=none;endFill=0;strokeColor=#FF6392;fillColor=#FFE45E;" edge="1" parent="9fgfc-uTjoTx4CT3Glm3-1" source="9fgfc-uTjoTx4CT3Glm3-11">
          <mxGeometry relative="1" as="geometry">
            <mxPoint x="1233.8095238095236" y="246.66666666666663" as="targetPoint" />
          </mxGeometry>
        </mxCell>
        <mxCell id="9fgfc-uTjoTx4CT3Glm3-11" value="&lt;font style=&quot;font-size: 15px&quot;&gt;Origin&lt;/font&gt;" style="rounded=0;whiteSpace=wrap;html=1;sketch=0;fontColor=#5AA9E6;strokeColor=#FF6392;fillColor=#FFE45E;" vertex="1" parent="9fgfc-uTjoTx4CT3Glm3-1">
          <mxGeometry x="1174" y="304" width="120" height="60" as="geometry" />
        </mxCell>
        <mxCell id="9fgfc-uTjoTx4CT3Glm3-25" style="edgeStyle=orthogonalEdgeStyle;curved=0;rounded=1;sketch=0;orthogonalLoop=1;jettySize=auto;html=1;exitX=0.5;exitY=0;exitDx=0;exitDy=0;fontSize=15;fontColor=#5AA9E6;startArrow=classic;startFill=1;endArrow=none;endFill=0;strokeColor=#FF6392;fillColor=#FFE45E;" edge="1" parent="9fgfc-uTjoTx4CT3Glm3-1" source="9fgfc-uTjoTx4CT3Glm3-12">
          <mxGeometry relative="1" as="geometry">
            <mxPoint x="1353.8095238095236" y="246.66666666666663" as="targetPoint" />
          </mxGeometry>
        </mxCell>
        <mxCell id="9fgfc-uTjoTx4CT3Glm3-12" value="&lt;font style=&quot;font-size: 15px&quot;&gt;Expected&amp;nbsp;&lt;br&gt;Arrival&lt;/font&gt;" style="rounded=0;whiteSpace=wrap;html=1;sketch=0;fontColor=#5AA9E6;strokeColor=#FF6392;fillColor=#FFE45E;" vertex="1" parent="9fgfc-uTjoTx4CT3Glm3-1">
          <mxGeometry x="1294" y="304" width="120" height="60" as="geometry" />
        </mxCell>
        <mxCell id="9fgfc-uTjoTx4CT3Glm3-26" style="edgeStyle=orthogonalEdgeStyle;curved=0;rounded=1;sketch=0;orthogonalLoop=1;jettySize=auto;html=1;exitX=0.5;exitY=0;exitDx=0;exitDy=0;fontSize=15;fontColor=#5AA9E6;startArrow=classic;startFill=1;endArrow=none;endFill=0;strokeColor=#FF6392;fillColor=#FFE45E;" edge="1" parent="9fgfc-uTjoTx4CT3Glm3-1" source="9fgfc-uTjoTx4CT3Glm3-13">
          <mxGeometry relative="1" as="geometry">
            <mxPoint x="1474" y="248" as="targetPoint" />
          </mxGeometry>
        </mxCell>
        <mxCell id="9fgfc-uTjoTx4CT3Glm3-13" value="&lt;font style=&quot;font-size: 15px&quot;&gt;Shipment&amp;nbsp;&lt;br&gt;Date&lt;/font&gt;" style="rounded=0;whiteSpace=wrap;html=1;sketch=0;fontColor=#5AA9E6;strokeColor=#FF6392;fillColor=#FFE45E;" vertex="1" parent="9fgfc-uTjoTx4CT3Glm3-1">
          <mxGeometry x="1414" y="304" width="120" height="60" as="geometry" />
        </mxCell>
        <mxCell id="9fgfc-uTjoTx4CT3Glm3-21" style="edgeStyle=orthogonalEdgeStyle;curved=0;rounded=1;sketch=0;orthogonalLoop=1;jettySize=auto;html=1;exitX=0.5;exitY=0;exitDx=0;exitDy=0;fontSize=15;fontColor=#5AA9E6;startArrow=none;startFill=0;endArrow=classic;endFill=1;strokeColor=#FF6392;fillColor=#FFE45E;entryX=0.5;entryY=0;entryDx=0;entryDy=0;" edge="1" parent="9fgfc-uTjoTx4CT3Glm3-1" source="9fgfc-uTjoTx4CT3Glm3-14" target="9fgfc-uTjoTx4CT3Glm3-8">
          <mxGeometry relative="1" as="geometry">
            <mxPoint x="946" y="190" as="targetPoint" />
            <Array as="points">
              <mxPoint x="1594" y="247" />
              <mxPoint x="874" y="247" />
            </Array>
          </mxGeometry>
        </mxCell>
        <mxCell id="9fgfc-uTjoTx4CT3Glm3-27" style="edgeStyle=orthogonalEdgeStyle;curved=0;rounded=1;sketch=0;orthogonalLoop=1;jettySize=auto;html=1;exitX=0.5;exitY=1;exitDx=0;exitDy=0;fontSize=15;fontColor=#5AA9E6;startArrow=none;startFill=0;endArrow=classic;endFill=1;strokeColor=#FF6392;fillColor=#FFE45E;entryX=0.5;entryY=1;entryDx=0;entryDy=0;" edge="1" parent="9fgfc-uTjoTx4CT3Glm3-1" source="9fgfc-uTjoTx4CT3Glm3-14" target="9fgfc-uTjoTx4CT3Glm3-2">
          <mxGeometry relative="1" as="geometry">
            <mxPoint x="229.66666666666674" y="554.6666666666667" as="targetPoint" />
            <Array as="points">
              <mxPoint x="1594" y="423" />
              <mxPoint x="154" y="423" />
            </Array>
          </mxGeometry>
        </mxCell>
        <mxCell id="9fgfc-uTjoTx4CT3Glm3-14" value="&lt;font style=&quot;font-size: 16px&quot;&gt;&lt;b&gt;&lt;u&gt;Shipment ID&lt;/u&gt;&lt;/b&gt;&lt;/font&gt;" style="rounded=0;whiteSpace=wrap;html=1;sketch=0;fontColor=#5AA9E6;strokeColor=#FF6392;fillColor=#FFE45E;" vertex="1" parent="9fgfc-uTjoTx4CT3Glm3-1">
          <mxGeometry x="1534" y="304" width="120" height="60" as="geometry" />
        </mxCell>
        <mxCell id="9fgfc-uTjoTx4CT3Glm3-40" style="edgeStyle=orthogonalEdgeStyle;curved=0;rounded=1;sketch=0;orthogonalLoop=1;jettySize=auto;html=1;exitX=0.5;exitY=0;exitDx=0;exitDy=0;fontSize=16;fontColor=#5AA9E6;startArrow=classic;startFill=1;endArrow=none;endFill=0;strokeColor=#FF6392;fillColor=#FFE45E;" edge="1" parent="9fgfc-uTjoTx4CT3Glm3-1" source="9fgfc-uTjoTx4CT3Glm3-28">
          <mxGeometry relative="1" as="geometry">
            <mxPoint x="861.2857142857142" y="668.7142857142858" as="targetPoint" />
          </mxGeometry>
        </mxCell>
        <mxCell id="9fgfc-uTjoTx4CT3Glm3-28" value="Origin" style="rounded=0;whiteSpace=wrap;html=1;sketch=0;fontSize=15;fontColor=#5AA9E6;strokeColor=#FF6392;fillColor=#FFE45E;" vertex="1" parent="9fgfc-uTjoTx4CT3Glm3-1">
          <mxGeometry x="801" y="734" width="120" height="60" as="geometry" />
        </mxCell>
        <mxCell id="9fgfc-uTjoTx4CT3Glm3-41" style="edgeStyle=orthogonalEdgeStyle;curved=0;rounded=1;sketch=0;orthogonalLoop=1;jettySize=auto;html=1;exitX=0.5;exitY=0;exitDx=0;exitDy=0;fontSize=16;fontColor=#5AA9E6;startArrow=classic;startFill=1;endArrow=none;endFill=0;strokeColor=#FF6392;fillColor=#FFE45E;" edge="1" parent="9fgfc-uTjoTx4CT3Glm3-1" source="9fgfc-uTjoTx4CT3Glm3-29">
          <mxGeometry relative="1" as="geometry">
            <mxPoint x="981" y="668" as="targetPoint" />
          </mxGeometry>
        </mxCell>
        <mxCell id="9fgfc-uTjoTx4CT3Glm3-29" value="Expected&lt;br&gt;Arrival&lt;br&gt;Date" style="rounded=0;whiteSpace=wrap;html=1;sketch=0;fontSize=15;fontColor=#5AA9E6;strokeColor=#FF6392;fillColor=#FFE45E;" vertex="1" parent="9fgfc-uTjoTx4CT3Glm3-1">
          <mxGeometry x="921" y="734" width="120" height="60" as="geometry" />
        </mxCell>
        <mxCell id="9fgfc-uTjoTx4CT3Glm3-30" value="Captain ID" style="rounded=0;whiteSpace=wrap;html=1;sketch=0;fontSize=15;fontColor=#5AA9E6;strokeColor=#FF6392;fillColor=#FFE45E;" vertex="1" parent="9fgfc-uTjoTx4CT3Glm3-1">
          <mxGeometry x="441" y="734" width="120" height="60" as="geometry" />
        </mxCell>
        <mxCell id="9fgfc-uTjoTx4CT3Glm3-39" style="edgeStyle=orthogonalEdgeStyle;curved=0;rounded=1;sketch=0;orthogonalLoop=1;jettySize=auto;html=1;exitX=0.5;exitY=0;exitDx=0;exitDy=0;fontSize=16;fontColor=#5AA9E6;startArrow=classic;startFill=1;endArrow=none;endFill=0;strokeColor=#FF6392;fillColor=#FFE45E;" edge="1" parent="9fgfc-uTjoTx4CT3Glm3-1" source="9fgfc-uTjoTx4CT3Glm3-31">
          <mxGeometry relative="1" as="geometry">
            <mxPoint x="741.2857142857142" y="669.2857142857142" as="targetPoint" />
          </mxGeometry>
        </mxCell>
        <mxCell id="9fgfc-uTjoTx4CT3Glm3-31" value="Destination&amp;nbsp;" style="rounded=0;whiteSpace=wrap;html=1;sketch=0;fontSize=15;fontColor=#5AA9E6;strokeColor=#FF6392;fillColor=#FFE45E;" vertex="1" parent="9fgfc-uTjoTx4CT3Glm3-1">
          <mxGeometry x="681" y="734" width="120" height="60" as="geometry" />
        </mxCell>
        <mxCell id="9fgfc-uTjoTx4CT3Glm3-36" style="edgeStyle=orthogonalEdgeStyle;curved=0;rounded=1;sketch=0;orthogonalLoop=1;jettySize=auto;html=1;exitX=0.5;exitY=0;exitDx=0;exitDy=0;fontSize=16;fontColor=#5AA9E6;startArrow=none;startFill=0;endArrow=classic;endFill=1;strokeColor=#FF6392;fillColor=#FFE45E;entryX=0.5;entryY=0;entryDx=0;entryDy=0;" edge="1" parent="9fgfc-uTjoTx4CT3Glm3-1" source="9fgfc-uTjoTx4CT3Glm3-32" target="9fgfc-uTjoTx4CT3Glm3-30">
          <mxGeometry relative="1" as="geometry">
            <mxPoint x="693" y="603" as="targetPoint" />
            <Array as="points">
              <mxPoint x="1221" y="669" />
              <mxPoint x="501" y="669" />
            </Array>
          </mxGeometry>
        </mxCell>
        <mxCell id="9fgfc-uTjoTx4CT3Glm3-32" value="&lt;font style=&quot;font-size: 16px&quot;&gt;&lt;b&gt;&lt;u&gt;Shipment ID&lt;/u&gt;&lt;/b&gt;&lt;/font&gt;" style="rounded=0;whiteSpace=wrap;html=1;sketch=0;fontSize=15;fontColor=#5AA9E6;strokeColor=#FF6392;fillColor=#FFE45E;" vertex="1" parent="9fgfc-uTjoTx4CT3Glm3-1">
          <mxGeometry x="1161" y="734" width="120" height="60" as="geometry" />
        </mxCell>
        <mxCell id="9fgfc-uTjoTx4CT3Glm3-38" style="edgeStyle=orthogonalEdgeStyle;curved=0;rounded=1;sketch=0;orthogonalLoop=1;jettySize=auto;html=1;exitX=0.5;exitY=0;exitDx=0;exitDy=0;fontSize=16;fontColor=#5AA9E6;startArrow=classic;startFill=1;endArrow=none;endFill=0;strokeColor=#FF6392;fillColor=#FFE45E;" edge="1" parent="9fgfc-uTjoTx4CT3Glm3-1" source="9fgfc-uTjoTx4CT3Glm3-33">
          <mxGeometry relative="1" as="geometry">
            <mxPoint x="621.2857142857142" y="670.4285714285713" as="targetPoint" />
          </mxGeometry>
        </mxCell>
        <mxCell id="9fgfc-uTjoTx4CT3Glm3-33" value="Ship Number&amp;nbsp;" style="rounded=0;whiteSpace=wrap;html=1;sketch=0;fontSize=15;fontColor=#5AA9E6;strokeColor=#FF6392;fillColor=#FFE45E;" vertex="1" parent="9fgfc-uTjoTx4CT3Glm3-1">
          <mxGeometry x="561" y="734" width="120" height="60" as="geometry" />
        </mxCell>
        <mxCell id="9fgfc-uTjoTx4CT3Glm3-42" style="edgeStyle=orthogonalEdgeStyle;curved=0;rounded=1;sketch=0;orthogonalLoop=1;jettySize=auto;html=1;exitX=0.5;exitY=0;exitDx=0;exitDy=0;fontSize=16;fontColor=#5AA9E6;startArrow=classic;startFill=1;endArrow=none;endFill=0;strokeColor=#FF6392;fillColor=#FFE45E;" edge="1" parent="9fgfc-uTjoTx4CT3Glm3-1" source="9fgfc-uTjoTx4CT3Glm3-34">
          <mxGeometry relative="1" as="geometry">
            <mxPoint x="1101.2857142857142" y="668.7142857142858" as="targetPoint" />
          </mxGeometry>
        </mxCell>
        <mxCell id="9fgfc-uTjoTx4CT3Glm3-34" value="Shipment &lt;br&gt;Date &amp;nbsp;" style="rounded=0;whiteSpace=wrap;html=1;sketch=0;fontSize=15;fontColor=#5AA9E6;strokeColor=#FF6392;fillColor=#FFE45E;" vertex="1" parent="9fgfc-uTjoTx4CT3Glm3-1">
          <mxGeometry x="1041" y="734" width="120" height="60" as="geometry" />
        </mxCell>
        <mxCell id="9fgfc-uTjoTx4CT3Glm3-43" value="Shipment&amp;nbsp;" style="text;html=1;align=center;verticalAlign=middle;resizable=0;points=[];autosize=1;strokeColor=none;fillColor=none;fontSize=16;fontColor=#5AA9E6;" vertex="1" parent="9fgfc-uTjoTx4CT3Glm3-1">
          <mxGeometry x="1217" y="685" width="82" height="23" as="geometry" />
        </mxCell>
        <mxCell id="9fgfc-uTjoTx4CT3Glm3-48" style="edgeStyle=orthogonalEdgeStyle;curved=0;rounded=1;sketch=0;orthogonalLoop=1;jettySize=auto;html=1;exitX=0.5;exitY=0;exitDx=0;exitDy=0;fontSize=16;fontColor=#5AA9E6;startArrow=none;startFill=0;endArrow=none;endFill=0;strokeColor=#FF6392;fillColor=#FFE45E;" edge="1" parent="9fgfc-uTjoTx4CT3Glm3-1" source="9fgfc-uTjoTx4CT3Glm3-44">
          <mxGeometry relative="1" as="geometry">
            <mxPoint x="557" y="860.3333333333333" as="targetPoint" />
          </mxGeometry>
        </mxCell>
        <mxCell id="9fgfc-uTjoTx4CT3Glm3-44" value="&lt;font style=&quot;font-size: 16px&quot;&gt;&lt;b&gt;&lt;u&gt;Shipment ID&lt;/u&gt;&lt;/b&gt;&lt;/font&gt;" style="rounded=0;whiteSpace=wrap;html=1;sketch=0;fontSize=15;fontColor=#5AA9E6;strokeColor=#FF6392;fillColor=#FFE45E;" vertex="1" parent="9fgfc-uTjoTx4CT3Glm3-1">
          <mxGeometry x="497" y="912" width="120" height="60" as="geometry" />
        </mxCell>
        <mxCell id="9fgfc-uTjoTx4CT3Glm3-45" value="&lt;b style=&quot;font-size: 16px&quot;&gt;&lt;u&gt;Item&lt;br&gt;Number&lt;/u&gt;&lt;/b&gt;" style="rounded=0;whiteSpace=wrap;html=1;sketch=0;fontColor=#5AA9E6;strokeColor=#FF6392;fillColor=#FFE45E;" vertex="1" parent="9fgfc-uTjoTx4CT3Glm3-1">
          <mxGeometry x="617" y="912" width="120" height="60" as="geometry" />
        </mxCell>
        <mxCell id="9fgfc-uTjoTx4CT3Glm3-47" style="edgeStyle=orthogonalEdgeStyle;curved=0;rounded=1;sketch=0;orthogonalLoop=1;jettySize=auto;html=1;exitX=0.5;exitY=0;exitDx=0;exitDy=0;fontSize=16;fontColor=#5AA9E6;startArrow=classic;startFill=1;endArrow=none;endFill=0;strokeColor=#FF6392;fillColor=#FFE45E;entryX=0.5;entryY=0;entryDx=0;entryDy=0;" edge="1" parent="9fgfc-uTjoTx4CT3Glm3-1" source="9fgfc-uTjoTx4CT3Glm3-46" target="9fgfc-uTjoTx4CT3Glm3-45">
          <mxGeometry relative="1" as="geometry">
            <mxPoint x="619" y="810" as="targetPoint" />
            <Array as="points">
              <mxPoint x="437" y="861" />
              <mxPoint x="677" y="861" />
            </Array>
          </mxGeometry>
        </mxCell>
        <mxCell id="9fgfc-uTjoTx4CT3Glm3-46" value="&lt;font style=&quot;font-size: 15px&quot;&gt;Quantity&lt;/font&gt;" style="rounded=0;whiteSpace=wrap;html=1;sketch=0;fontColor=#5AA9E6;strokeColor=#FF6392;fillColor=#FFE45E;" vertex="1" parent="9fgfc-uTjoTx4CT3Glm3-1">
          <mxGeometry x="377" y="912" width="120" height="60" as="geometry" />
        </mxCell>
        <mxCell id="9fgfc-uTjoTx4CT3Glm3-49" value="Shipment Line" style="text;html=1;align=center;verticalAlign=middle;resizable=0;points=[];autosize=1;strokeColor=none;fillColor=none;fontSize=16;fontColor=#5AA9E6;" vertex="1" parent="9fgfc-uTjoTx4CT3Glm3-1">
          <mxGeometry x="497" y="978" width="112" height="23" as="geometry" />
        </mxCell>
        <mxCell id="9fgfc-uTjoTx4CT3Glm3-54" style="edgeStyle=orthogonalEdgeStyle;curved=0;rounded=1;sketch=0;orthogonalLoop=1;jettySize=auto;html=1;exitX=0.5;exitY=1;exitDx=0;exitDy=0;fontSize=16;fontColor=#5AA9E6;startArrow=none;startFill=0;endArrow=classic;endFill=1;strokeColor=#FF6392;fillColor=#FFE45E;entryX=0.5;entryY=1;entryDx=0;entryDy=0;" edge="1" parent="9fgfc-uTjoTx4CT3Glm3-1" source="9fgfc-uTjoTx4CT3Glm3-50" target="9fgfc-uTjoTx4CT3Glm3-53">
          <mxGeometry relative="1" as="geometry">
            <mxPoint x="1259" y="1112" as="targetPoint" />
            <Array as="points">
              <mxPoint x="972" y="1045" />
              <mxPoint x="1332" y="1045" />
            </Array>
          </mxGeometry>
        </mxCell>
        <mxCell id="9fgfc-uTjoTx4CT3Glm3-50" value="&lt;b style=&quot;font-size: 16px&quot;&gt;&lt;u&gt;Item&lt;br&gt;Number&lt;/u&gt;&lt;/b&gt;" style="rounded=0;whiteSpace=wrap;html=1;sketch=0;fontColor=#5AA9E6;strokeColor=#FF6392;fillColor=#FFE45E;" vertex="1" parent="9fgfc-uTjoTx4CT3Glm3-1">
          <mxGeometry x="912" y="918" width="120" height="60" as="geometry" />
        </mxCell>
        <mxCell id="9fgfc-uTjoTx4CT3Glm3-56" style="edgeStyle=orthogonalEdgeStyle;curved=0;rounded=1;sketch=0;orthogonalLoop=1;jettySize=auto;html=1;exitX=0.5;exitY=1;exitDx=0;exitDy=0;fontSize=16;fontColor=#5AA9E6;startArrow=classic;startFill=1;endArrow=none;endFill=0;strokeColor=#FF6392;fillColor=#FFE45E;" edge="1" parent="9fgfc-uTjoTx4CT3Glm3-1" source="9fgfc-uTjoTx4CT3Glm3-51">
          <mxGeometry relative="1" as="geometry">
            <mxPoint x="1092.142857142857" y="1043.5714285714287" as="targetPoint" />
          </mxGeometry>
        </mxCell>
        <mxCell id="9fgfc-uTjoTx4CT3Glm3-51" value="&lt;font style=&quot;font-size: 15px&quot;&gt;Type&lt;/font&gt;" style="rounded=0;whiteSpace=wrap;html=1;sketch=0;fontColor=#5AA9E6;strokeColor=#FF6392;fillColor=#FFE45E;" vertex="1" parent="9fgfc-uTjoTx4CT3Glm3-1">
          <mxGeometry x="1032" y="918" width="120" height="60" as="geometry" />
        </mxCell>
        <mxCell id="9fgfc-uTjoTx4CT3Glm3-57" style="edgeStyle=orthogonalEdgeStyle;curved=0;rounded=1;sketch=0;orthogonalLoop=1;jettySize=auto;html=1;exitX=0.5;exitY=1;exitDx=0;exitDy=0;fontSize=16;fontColor=#5AA9E6;startArrow=classic;startFill=1;endArrow=none;endFill=0;strokeColor=#FF6392;fillColor=#FFE45E;" edge="1" parent="9fgfc-uTjoTx4CT3Glm3-1" source="9fgfc-uTjoTx4CT3Glm3-52">
          <mxGeometry relative="1" as="geometry">
            <mxPoint x="1212.142857142857" y="1045.857142857143" as="targetPoint" />
          </mxGeometry>
        </mxCell>
        <mxCell id="9fgfc-uTjoTx4CT3Glm3-52" value="&lt;font style=&quot;font-size: 15px&quot;&gt;Description&amp;nbsp;&lt;/font&gt;" style="rounded=0;whiteSpace=wrap;html=1;sketch=0;fontColor=#5AA9E6;strokeColor=#FF6392;fillColor=#FFE45E;" vertex="1" parent="9fgfc-uTjoTx4CT3Glm3-1">
          <mxGeometry x="1152" y="918" width="120" height="60" as="geometry" />
        </mxCell>
        <mxCell id="9fgfc-uTjoTx4CT3Glm3-53" value="&lt;font style=&quot;font-size: 15px&quot;&gt;Weight&amp;nbsp;&lt;/font&gt;" style="rounded=0;whiteSpace=wrap;html=1;sketch=0;fontColor=#5AA9E6;strokeColor=#FF6392;fillColor=#FFE45E;" vertex="1" parent="9fgfc-uTjoTx4CT3Glm3-1">
          <mxGeometry x="1272" y="918" width="120" height="60" as="geometry" />
        </mxCell>
        <mxCell id="9fgfc-uTjoTx4CT3Glm3-55" value="Item" style="text;html=1;align=center;verticalAlign=middle;resizable=0;points=[];autosize=1;strokeColor=none;fillColor=none;fontSize=16;fontColor=#5AA9E6;" vertex="1" parent="9fgfc-uTjoTx4CT3Glm3-1">
          <mxGeometry x="912" y="889" width="41" height="23" as="geometry" />
        </mxCell>
        <mxCell id="9fgfc-uTjoTx4CT3Glm3-60" style="edgeStyle=orthogonalEdgeStyle;curved=0;rounded=1;sketch=0;orthogonalLoop=1;jettySize=auto;html=1;exitX=0.5;exitY=1;exitDx=0;exitDy=0;fontSize=16;fontColor=#5AA9E6;startArrow=classic;startFill=1;endArrow=none;endFill=0;strokeColor=#FF6392;fillColor=#FFE45E;entryX=0.5;entryY=1;entryDx=0;entryDy=0;" edge="1" parent="9fgfc-uTjoTx4CT3Glm3-1" source="9fgfc-uTjoTx4CT3Glm3-58" target="9fgfc-uTjoTx4CT3Glm3-59">
          <mxGeometry relative="1" as="geometry">
            <mxPoint x="274" y="659" as="targetPoint" />
            <Array as="points">
              <mxPoint x="155" y="655" />
              <mxPoint x="275" y="655" />
            </Array>
          </mxGeometry>
        </mxCell>
        <mxCell id="9fgfc-uTjoTx4CT3Glm3-58" value="&lt;font style=&quot;font-size: 15px&quot;&gt;Captain Name&amp;nbsp;&lt;/font&gt;" style="rounded=0;whiteSpace=wrap;html=1;sketch=0;fontColor=#5AA9E6;strokeColor=#FF6392;fillColor=#FFE45E;" vertex="1" parent="9fgfc-uTjoTx4CT3Glm3-1">
          <mxGeometry x="95" y="569" width="120" height="60" as="geometry" />
        </mxCell>
        <mxCell id="9fgfc-uTjoTx4CT3Glm3-59" value="&lt;font style=&quot;font-size: 15px&quot;&gt;Captain ID&lt;/font&gt;" style="rounded=0;whiteSpace=wrap;html=1;sketch=0;fontColor=#5AA9E6;strokeColor=#FF6392;fillColor=#FFE45E;" vertex="1" parent="9fgfc-uTjoTx4CT3Glm3-1">
          <mxGeometry x="215" y="569" width="120" height="60" as="geometry" />
        </mxCell>
        <mxCell id="9fgfc-uTjoTx4CT3Glm3-61" value="Captain" style="text;html=1;align=center;verticalAlign=middle;resizable=0;points=[];autosize=1;strokeColor=none;fillColor=none;fontSize=16;fontColor=#5AA9E6;" vertex="1" parent="9fgfc-uTjoTx4CT3Glm3-1">
          <mxGeometry x="82" y="537" width="65" height="23" as="geometry" />
        </mxCell>
        <mxCell id="9fgfc-uTjoTx4CT3Glm3-96" style="edgeStyle=orthogonalEdgeStyle;curved=0;rounded=1;sketch=0;orthogonalLoop=1;jettySize=auto;html=1;exitX=0;exitY=0.5;exitDx=0;exitDy=0;fontSize=16;fontColor=#5AA9E6;startArrow=none;startFill=0;endArrow=classic;endFill=1;strokeColor=#FF6392;fillColor=#FFE45E;" edge="1" parent="9fgfc-uTjoTx4CT3Glm3-1" source="9fgfc-uTjoTx4CT3Glm3-75">
          <mxGeometry relative="1" as="geometry">
            <mxPoint x="1983.8620689655172" y="293.2413793103449" as="targetPoint" />
          </mxGeometry>
        </mxCell>
        <mxCell id="9fgfc-uTjoTx4CT3Glm3-75" value="&lt;font style=&quot;font-size: 15px&quot;&gt;Captain ID&lt;/font&gt;" style="rounded=0;whiteSpace=wrap;html=1;sketch=0;fontColor=#5AA9E6;strokeColor=#FF6392;fillColor=#FFE45E;" vertex="1" parent="9fgfc-uTjoTx4CT3Glm3-1">
          <mxGeometry x="2036" y="263" width="120" height="60" as="geometry" />
        </mxCell>
        <mxCell id="9fgfc-uTjoTx4CT3Glm3-76" style="edgeStyle=orthogonalEdgeStyle;curved=0;rounded=1;sketch=0;orthogonalLoop=1;jettySize=auto;html=1;exitX=0.5;exitY=0;exitDx=0;exitDy=0;fontSize=15;fontColor=#5AA9E6;startArrow=classic;startFill=1;endArrow=none;endFill=0;strokeColor=#FF6392;fillColor=#FFE45E;" edge="1" parent="9fgfc-uTjoTx4CT3Glm3-1" source="9fgfc-uTjoTx4CT3Glm3-77">
          <mxGeometry relative="1" as="geometry">
            <mxPoint x="2216" y="206" as="targetPoint" />
          </mxGeometry>
        </mxCell>
        <mxCell id="9fgfc-uTjoTx4CT3Glm3-77" value="&lt;font style=&quot;font-size: 15px&quot;&gt;Ship&lt;br&gt;Number&lt;/font&gt;" style="rounded=0;whiteSpace=wrap;html=1;sketch=0;fontColor=#5AA9E6;strokeColor=#FF6392;fillColor=#FFE45E;" vertex="1" parent="9fgfc-uTjoTx4CT3Glm3-1">
          <mxGeometry x="2156" y="263" width="120" height="60" as="geometry" />
        </mxCell>
        <mxCell id="9fgfc-uTjoTx4CT3Glm3-78" style="edgeStyle=orthogonalEdgeStyle;curved=0;rounded=1;sketch=0;orthogonalLoop=1;jettySize=auto;html=1;exitX=0.5;exitY=0;exitDx=0;exitDy=0;fontSize=15;fontColor=#5AA9E6;startArrow=classic;startFill=1;endArrow=none;endFill=0;strokeColor=#FF6392;fillColor=#FFE45E;" edge="1" parent="9fgfc-uTjoTx4CT3Glm3-1" source="9fgfc-uTjoTx4CT3Glm3-79">
          <mxGeometry relative="1" as="geometry">
            <mxPoint x="2335.809523809524" y="206.1428571428571" as="targetPoint" />
          </mxGeometry>
        </mxCell>
        <mxCell id="9fgfc-uTjoTx4CT3Glm3-79" value="&lt;font style=&quot;font-size: 15px&quot;&gt;Destination&lt;/font&gt;" style="rounded=0;whiteSpace=wrap;html=1;sketch=0;fontColor=#5AA9E6;strokeColor=#FF6392;fillColor=#FFE45E;" vertex="1" parent="9fgfc-uTjoTx4CT3Glm3-1">
          <mxGeometry x="2276" y="263" width="120" height="60" as="geometry" />
        </mxCell>
        <mxCell id="9fgfc-uTjoTx4CT3Glm3-80" style="edgeStyle=orthogonalEdgeStyle;curved=0;rounded=1;sketch=0;orthogonalLoop=1;jettySize=auto;html=1;exitX=0.5;exitY=0;exitDx=0;exitDy=0;fontSize=15;fontColor=#5AA9E6;startArrow=classic;startFill=1;endArrow=none;endFill=0;strokeColor=#FF6392;fillColor=#FFE45E;" edge="1" parent="9fgfc-uTjoTx4CT3Glm3-1" source="9fgfc-uTjoTx4CT3Glm3-81">
          <mxGeometry relative="1" as="geometry">
            <mxPoint x="2455.809523809524" y="205.66666666666652" as="targetPoint" />
          </mxGeometry>
        </mxCell>
        <mxCell id="9fgfc-uTjoTx4CT3Glm3-81" value="&lt;font style=&quot;font-size: 15px&quot;&gt;Origin&lt;/font&gt;" style="rounded=0;whiteSpace=wrap;html=1;sketch=0;fontColor=#5AA9E6;strokeColor=#FF6392;fillColor=#FFE45E;" vertex="1" parent="9fgfc-uTjoTx4CT3Glm3-1">
          <mxGeometry x="2396" y="263" width="120" height="60" as="geometry" />
        </mxCell>
        <mxCell id="9fgfc-uTjoTx4CT3Glm3-82" style="edgeStyle=orthogonalEdgeStyle;curved=0;rounded=1;sketch=0;orthogonalLoop=1;jettySize=auto;html=1;exitX=0.5;exitY=0;exitDx=0;exitDy=0;fontSize=15;fontColor=#5AA9E6;startArrow=classic;startFill=1;endArrow=none;endFill=0;strokeColor=#FF6392;fillColor=#FFE45E;" edge="1" parent="9fgfc-uTjoTx4CT3Glm3-1" source="9fgfc-uTjoTx4CT3Glm3-83">
          <mxGeometry relative="1" as="geometry">
            <mxPoint x="2575.809523809524" y="205.66666666666652" as="targetPoint" />
          </mxGeometry>
        </mxCell>
        <mxCell id="9fgfc-uTjoTx4CT3Glm3-83" value="&lt;font style=&quot;font-size: 15px&quot;&gt;Expected&amp;nbsp;&lt;br&gt;Arrival&lt;/font&gt;" style="rounded=0;whiteSpace=wrap;html=1;sketch=0;fontColor=#5AA9E6;strokeColor=#FF6392;fillColor=#FFE45E;" vertex="1" parent="9fgfc-uTjoTx4CT3Glm3-1">
          <mxGeometry x="2516" y="263" width="120" height="60" as="geometry" />
        </mxCell>
        <mxCell id="9fgfc-uTjoTx4CT3Glm3-84" style="edgeStyle=orthogonalEdgeStyle;curved=0;rounded=1;sketch=0;orthogonalLoop=1;jettySize=auto;html=1;exitX=0.5;exitY=0;exitDx=0;exitDy=0;fontSize=15;fontColor=#5AA9E6;startArrow=classic;startFill=1;endArrow=none;endFill=0;strokeColor=#FF6392;fillColor=#FFE45E;" edge="1" parent="9fgfc-uTjoTx4CT3Glm3-1" source="9fgfc-uTjoTx4CT3Glm3-85">
          <mxGeometry relative="1" as="geometry">
            <mxPoint x="2696" y="207" as="targetPoint" />
          </mxGeometry>
        </mxCell>
        <mxCell id="9fgfc-uTjoTx4CT3Glm3-85" value="&lt;font style=&quot;font-size: 15px&quot;&gt;Shipment&amp;nbsp;&lt;br&gt;Date&lt;/font&gt;" style="rounded=0;whiteSpace=wrap;html=1;sketch=0;fontColor=#5AA9E6;strokeColor=#FF6392;fillColor=#FFE45E;" vertex="1" parent="9fgfc-uTjoTx4CT3Glm3-1">
          <mxGeometry x="2636" y="263" width="120" height="60" as="geometry" />
        </mxCell>
        <mxCell id="9fgfc-uTjoTx4CT3Glm3-86" style="edgeStyle=orthogonalEdgeStyle;curved=0;rounded=1;sketch=0;orthogonalLoop=1;jettySize=auto;html=1;exitX=0.5;exitY=0;exitDx=0;exitDy=0;fontSize=15;fontColor=#5AA9E6;startArrow=none;startFill=0;endArrow=classic;endFill=1;strokeColor=#FF6392;fillColor=#FFE45E;entryX=0.5;entryY=0;entryDx=0;entryDy=0;" edge="1" parent="9fgfc-uTjoTx4CT3Glm3-1" source="9fgfc-uTjoTx4CT3Glm3-87" target="9fgfc-uTjoTx4CT3Glm3-75">
          <mxGeometry relative="1" as="geometry">
            <mxPoint x="2168" y="149" as="targetPoint" />
            <Array as="points">
              <mxPoint x="2816" y="206" />
              <mxPoint x="2096" y="206" />
            </Array>
          </mxGeometry>
        </mxCell>
        <mxCell id="9fgfc-uTjoTx4CT3Glm3-110" style="edgeStyle=orthogonalEdgeStyle;curved=0;rounded=1;sketch=0;orthogonalLoop=1;jettySize=auto;html=1;exitX=0.5;exitY=1;exitDx=0;exitDy=0;fontSize=16;fontColor=#5AA9E6;startArrow=none;startFill=0;endArrow=classic;endFill=1;strokeColor=#FF6392;fillColor=#FFE45E;" edge="1" parent="9fgfc-uTjoTx4CT3Glm3-1" source="9fgfc-uTjoTx4CT3Glm3-87" target="9fgfc-uTjoTx4CT3Glm3-104">
          <mxGeometry relative="1" as="geometry" />
        </mxCell>
        <mxCell id="9fgfc-uTjoTx4CT3Glm3-87" value="&lt;font style=&quot;font-size: 16px&quot;&gt;&lt;b&gt;&lt;u&gt;Shipment ID&lt;/u&gt;&lt;/b&gt;&lt;/font&gt;" style="rounded=0;whiteSpace=wrap;html=1;sketch=0;fontColor=#5AA9E6;strokeColor=#FF6392;fillColor=#FFE45E;" vertex="1" parent="9fgfc-uTjoTx4CT3Glm3-1">
          <mxGeometry x="2756" y="263" width="120" height="60" as="geometry" />
        </mxCell>
        <mxCell id="9fgfc-uTjoTx4CT3Glm3-92" style="edgeStyle=orthogonalEdgeStyle;curved=0;rounded=1;sketch=0;orthogonalLoop=1;jettySize=auto;html=1;exitX=0.5;exitY=1;exitDx=0;exitDy=0;fontSize=16;fontColor=#5AA9E6;startArrow=classic;startFill=1;endArrow=none;endFill=0;strokeColor=#FF6392;fillColor=#FFE45E;entryX=0.5;entryY=1;entryDx=0;entryDy=0;" edge="1" parent="9fgfc-uTjoTx4CT3Glm3-1" source="9fgfc-uTjoTx4CT3Glm3-93" target="9fgfc-uTjoTx4CT3Glm3-94">
          <mxGeometry relative="1" as="geometry">
            <mxPoint x="1938" y="363" as="targetPoint" />
            <Array as="points">
              <mxPoint x="1819" y="359" />
              <mxPoint x="1939" y="359" />
            </Array>
          </mxGeometry>
        </mxCell>
        <mxCell id="9fgfc-uTjoTx4CT3Glm3-93" value="&lt;font style=&quot;font-size: 15px&quot;&gt;Captain Name&amp;nbsp;&lt;/font&gt;" style="rounded=0;whiteSpace=wrap;html=1;sketch=0;fontColor=#5AA9E6;strokeColor=#FF6392;fillColor=#FFE45E;" vertex="1" parent="9fgfc-uTjoTx4CT3Glm3-1">
          <mxGeometry x="1743" y="263" width="120" height="60" as="geometry" />
        </mxCell>
        <mxCell id="9fgfc-uTjoTx4CT3Glm3-94" value="&lt;font style=&quot;font-size: 15px&quot;&gt;Captain ID&lt;/font&gt;" style="rounded=0;whiteSpace=wrap;html=1;sketch=0;fontColor=#5AA9E6;strokeColor=#FF6392;fillColor=#FFE45E;" vertex="1" parent="9fgfc-uTjoTx4CT3Glm3-1">
          <mxGeometry x="1863" y="263" width="120" height="60" as="geometry" />
        </mxCell>
        <mxCell id="9fgfc-uTjoTx4CT3Glm3-95" value="Captain" style="text;html=1;align=center;verticalAlign=middle;resizable=0;points=[];autosize=1;strokeColor=none;fillColor=none;fontSize=16;fontColor=#5AA9E6;" vertex="1" parent="9fgfc-uTjoTx4CT3Glm3-1">
          <mxGeometry x="1746" y="241" width="65" height="23" as="geometry" />
        </mxCell>
        <mxCell id="9fgfc-uTjoTx4CT3Glm3-104" value="&lt;font style=&quot;font-size: 16px&quot;&gt;&lt;b&gt;&lt;u&gt;Shipment ID&lt;/u&gt;&lt;/b&gt;&lt;/font&gt;" style="rounded=0;whiteSpace=wrap;html=1;sketch=0;fontSize=15;fontColor=#5AA9E6;strokeColor=#FF6392;fillColor=#FFE45E;" vertex="1" parent="9fgfc-uTjoTx4CT3Glm3-1">
          <mxGeometry x="2780" y="488" width="120" height="60" as="geometry" />
        </mxCell>
        <mxCell id="9fgfc-uTjoTx4CT3Glm3-105" value="&lt;b style=&quot;font-size: 16px&quot;&gt;&lt;u&gt;Item&lt;br&gt;Number&lt;/u&gt;&lt;/b&gt;" style="rounded=0;whiteSpace=wrap;html=1;sketch=0;fontColor=#5AA9E6;strokeColor=#FF6392;fillColor=#FFE45E;" vertex="1" parent="9fgfc-uTjoTx4CT3Glm3-1">
          <mxGeometry x="2900" y="488" width="120" height="60" as="geometry" />
        </mxCell>
        <mxCell id="9fgfc-uTjoTx4CT3Glm3-106" style="edgeStyle=orthogonalEdgeStyle;curved=0;rounded=1;sketch=0;orthogonalLoop=1;jettySize=auto;html=1;fontSize=16;fontColor=#5AA9E6;startArrow=classic;startFill=1;endArrow=none;endFill=0;strokeColor=#FF6392;fillColor=#FFE45E;exitX=0.5;exitY=1;exitDx=0;exitDy=0;" edge="1" parent="9fgfc-uTjoTx4CT3Glm3-1" source="9fgfc-uTjoTx4CT3Glm3-128">
          <mxGeometry relative="1" as="geometry">
            <mxPoint x="2960" y="550" as="targetPoint" />
            <Array as="points">
              <mxPoint x="2094" y="599" />
              <mxPoint x="2960" y="599" />
            </Array>
            <mxPoint x="2062" y="625" as="sourcePoint" />
          </mxGeometry>
        </mxCell>
        <mxCell id="9fgfc-uTjoTx4CT3Glm3-137" style="edgeStyle=orthogonalEdgeStyle;curved=0;rounded=1;sketch=0;orthogonalLoop=1;jettySize=auto;html=1;exitX=0.5;exitY=1;exitDx=0;exitDy=0;fontSize=16;fontColor=#5AA9E6;startArrow=classic;startFill=1;endArrow=none;endFill=0;strokeColor=#FF6392;fillColor=#FFE45E;" edge="1" parent="9fgfc-uTjoTx4CT3Glm3-1" source="9fgfc-uTjoTx4CT3Glm3-107">
          <mxGeometry relative="1" as="geometry">
            <mxPoint x="2720.3333333333335" y="599.8333333333335" as="targetPoint" />
          </mxGeometry>
        </mxCell>
        <mxCell id="9fgfc-uTjoTx4CT3Glm3-107" value="&lt;font style=&quot;font-size: 15px&quot;&gt;Quantity&lt;/font&gt;" style="rounded=0;whiteSpace=wrap;html=1;sketch=0;fontColor=#5AA9E6;strokeColor=#FF6392;fillColor=#FFE45E;" vertex="1" parent="9fgfc-uTjoTx4CT3Glm3-1">
          <mxGeometry x="2660" y="488" width="120" height="60" as="geometry" />
        </mxCell>
        <mxCell id="9fgfc-uTjoTx4CT3Glm3-108" value="Shipment Line" style="text;html=1;align=center;verticalAlign=middle;resizable=0;points=[];autosize=1;strokeColor=none;fillColor=none;fontSize=16;fontColor=#5AA9E6;" vertex="1" parent="9fgfc-uTjoTx4CT3Glm3-1">
          <mxGeometry x="2868" y="452" width="112" height="23" as="geometry" />
        </mxCell>
        <mxCell id="9fgfc-uTjoTx4CT3Glm3-109" style="edgeStyle=orthogonalEdgeStyle;curved=0;rounded=1;sketch=0;orthogonalLoop=1;jettySize=auto;html=1;exitX=0.5;exitY=0;exitDx=0;exitDy=0;fontSize=16;fontColor=#5AA9E6;startArrow=none;startFill=0;endArrow=none;endFill=0;strokeColor=#FF6392;fillColor=#FFE45E;" edge="1" parent="9fgfc-uTjoTx4CT3Glm3-1">
          <mxGeometry relative="1" as="geometry">
            <mxPoint x="2839.29" y="548.0033333333332" as="targetPoint" />
            <mxPoint x="2839.29" y="599.67" as="sourcePoint" />
            <Array as="points">
              <mxPoint x="2839.29" y="599.67" />
              <mxPoint x="2839.29" y="599.67" />
            </Array>
          </mxGeometry>
        </mxCell>
        <mxCell id="9fgfc-uTjoTx4CT3Glm3-127" style="edgeStyle=orthogonalEdgeStyle;curved=0;rounded=1;sketch=0;orthogonalLoop=1;jettySize=auto;html=1;exitX=0.5;exitY=0;exitDx=0;exitDy=0;fontSize=16;fontColor=#5AA9E6;startArrow=none;startFill=0;endArrow=classic;endFill=1;strokeColor=#FF6392;fillColor=#FFE45E;entryX=0.5;entryY=0;entryDx=0;entryDy=0;" edge="1" parent="9fgfc-uTjoTx4CT3Glm3-1" source="9fgfc-uTjoTx4CT3Glm3-128" target="9fgfc-uTjoTx4CT3Glm3-133">
          <mxGeometry relative="1" as="geometry">
            <mxPoint x="2381" y="683" as="targetPoint" />
            <Array as="points">
              <mxPoint x="2094" y="419" />
              <mxPoint x="2454" y="419" />
            </Array>
          </mxGeometry>
        </mxCell>
        <mxCell id="9fgfc-uTjoTx4CT3Glm3-128" value="&lt;b style=&quot;font-size: 16px&quot;&gt;&lt;u&gt;Item&lt;br&gt;Number&lt;/u&gt;&lt;/b&gt;" style="rounded=0;whiteSpace=wrap;html=1;sketch=0;fontColor=#5AA9E6;strokeColor=#FF6392;fillColor=#FFE45E;" vertex="1" parent="9fgfc-uTjoTx4CT3Glm3-1">
          <mxGeometry x="2034" y="489" width="120" height="60" as="geometry" />
        </mxCell>
        <mxCell id="9fgfc-uTjoTx4CT3Glm3-135" style="edgeStyle=orthogonalEdgeStyle;curved=0;rounded=1;sketch=0;orthogonalLoop=1;jettySize=auto;html=1;exitX=0.5;exitY=0;exitDx=0;exitDy=0;fontSize=16;fontColor=#5AA9E6;startArrow=classic;startFill=1;endArrow=none;endFill=0;strokeColor=#FF6392;fillColor=#FFE45E;" edge="1" parent="9fgfc-uTjoTx4CT3Glm3-1" source="9fgfc-uTjoTx4CT3Glm3-130">
          <mxGeometry relative="1" as="geometry">
            <mxPoint x="2213.666666666667" y="420.66666666666674" as="targetPoint" />
          </mxGeometry>
        </mxCell>
        <mxCell id="9fgfc-uTjoTx4CT3Glm3-130" value="&lt;font style=&quot;font-size: 15px&quot;&gt;Type&lt;/font&gt;" style="rounded=0;whiteSpace=wrap;html=1;sketch=0;fontColor=#5AA9E6;strokeColor=#FF6392;fillColor=#FFE45E;" vertex="1" parent="9fgfc-uTjoTx4CT3Glm3-1">
          <mxGeometry x="2154" y="489" width="120" height="60" as="geometry" />
        </mxCell>
        <mxCell id="9fgfc-uTjoTx4CT3Glm3-136" style="edgeStyle=orthogonalEdgeStyle;curved=0;rounded=1;sketch=0;orthogonalLoop=1;jettySize=auto;html=1;exitX=0.5;exitY=0;exitDx=0;exitDy=0;fontSize=16;fontColor=#5AA9E6;startArrow=classic;startFill=1;endArrow=none;endFill=0;strokeColor=#FF6392;fillColor=#FFE45E;" edge="1" parent="9fgfc-uTjoTx4CT3Glm3-1" source="9fgfc-uTjoTx4CT3Glm3-132">
          <mxGeometry relative="1" as="geometry">
            <mxPoint x="2333.666666666667" y="418.16666666666674" as="targetPoint" />
          </mxGeometry>
        </mxCell>
        <mxCell id="9fgfc-uTjoTx4CT3Glm3-132" value="&lt;font style=&quot;font-size: 15px&quot;&gt;Description&amp;nbsp;&lt;/font&gt;" style="rounded=0;whiteSpace=wrap;html=1;sketch=0;fontColor=#5AA9E6;strokeColor=#FF6392;fillColor=#FFE45E;" vertex="1" parent="9fgfc-uTjoTx4CT3Glm3-1">
          <mxGeometry x="2274" y="489" width="120" height="60" as="geometry" />
        </mxCell>
        <mxCell id="9fgfc-uTjoTx4CT3Glm3-133" value="&lt;font style=&quot;font-size: 15px&quot;&gt;Weight&amp;nbsp;&lt;/font&gt;" style="rounded=0;whiteSpace=wrap;html=1;sketch=0;fontColor=#5AA9E6;strokeColor=#FF6392;fillColor=#FFE45E;" vertex="1" parent="9fgfc-uTjoTx4CT3Glm3-1">
          <mxGeometry x="2394" y="489" width="120" height="60" as="geometry" />
        </mxCell>
        <mxCell id="9fgfc-uTjoTx4CT3Glm3-134" value="Item" style="text;html=1;align=center;verticalAlign=middle;resizable=0;points=[];autosize=1;strokeColor=none;fillColor=none;fontSize=16;fontColor=#5AA9E6;" vertex="1" parent="9fgfc-uTjoTx4CT3Glm3-1">
          <mxGeometry x="2034" y="460" width="41" height="23" as="geometry" />
        </mxCell>
        <mxCell id="9fgfc-uTjoTx4CT3Glm3-138" value="Shipment&amp;nbsp;" style="text;html=1;align=center;verticalAlign=middle;resizable=0;points=[];autosize=1;strokeColor=none;fillColor=none;fontSize=16;fontColor=#5AA9E6;" vertex="1" parent="9fgfc-uTjoTx4CT3Glm3-1">
          <mxGeometry x="2740" y="173" width="82" height="23" as="geometry" />
        </mxCell>
      </root>
    </mxGraphModel>
  </diagram>
  <diagram id="K-f_JzfX27jxVXaetOI4" name="Page-4">
    <mxGraphModel dx="946" dy="673" grid="0" gridSize="10" guides="1" tooltips="1" connect="1" arrows="1" fold="1" page="1" pageScale="1" pageWidth="1600" pageHeight="1200" math="0" shadow="0">
      <root>
        <mxCell id="iPytQXrafnWmTLizvr8M-0" />
        <mxCell id="iPytQXrafnWmTLizvr8M-1" parent="iPytQXrafnWmTLizvr8M-0" />
        <mxCell id="iPytQXrafnWmTLizvr8M-4" value="ITEM" style="shape=table;startSize=30;container=1;collapsible=1;childLayout=tableLayout;fixedRows=1;rowLines=0;fontStyle=1;align=center;resizeLast=1;rounded=0;sketch=0;fontSize=17;fontColor=#5AA9E6;strokeColor=#FF6392;fillColor=#FFE45E;" vertex="1" parent="iPytQXrafnWmTLizvr8M-1">
          <mxGeometry x="126" y="65" width="180" height="158.75" as="geometry" />
        </mxCell>
        <mxCell id="iPytQXrafnWmTLizvr8M-5" value="" style="shape=tableRow;horizontal=0;startSize=0;swimlaneHead=0;swimlaneBody=0;fillColor=none;collapsible=0;dropTarget=0;points=[[0,0.5],[1,0.5]];portConstraint=eastwest;top=0;left=0;right=0;bottom=1;rounded=0;sketch=0;fontSize=17;fontColor=#5AA9E6;strokeColor=#FF6392;" vertex="1" parent="iPytQXrafnWmTLizvr8M-4">
          <mxGeometry y="30" width="180" height="30" as="geometry" />
        </mxCell>
        <mxCell id="iPytQXrafnWmTLizvr8M-6" value="PK" style="shape=partialRectangle;connectable=0;fillColor=none;top=0;left=0;bottom=0;right=0;fontStyle=1;overflow=hidden;rounded=0;sketch=0;fontSize=17;fontColor=#5AA9E6;strokeColor=#FF6392;" vertex="1" parent="iPytQXrafnWmTLizvr8M-5">
          <mxGeometry width="30" height="30" as="geometry">
            <mxRectangle width="30" height="30" as="alternateBounds" />
          </mxGeometry>
        </mxCell>
        <mxCell id="iPytQXrafnWmTLizvr8M-7" value="Item Number" style="shape=partialRectangle;connectable=0;fillColor=none;top=0;left=0;bottom=0;right=0;align=left;spacingLeft=6;fontStyle=5;overflow=hidden;rounded=0;sketch=0;fontSize=17;fontColor=#5AA9E6;strokeColor=#FF6392;" vertex="1" parent="iPytQXrafnWmTLizvr8M-5">
          <mxGeometry x="30" width="150" height="30" as="geometry">
            <mxRectangle width="150" height="30" as="alternateBounds" />
          </mxGeometry>
        </mxCell>
        <mxCell id="iPytQXrafnWmTLizvr8M-8" value="" style="shape=tableRow;horizontal=0;startSize=0;swimlaneHead=0;swimlaneBody=0;fillColor=none;collapsible=0;dropTarget=0;points=[[0,0.5],[1,0.5]];portConstraint=eastwest;top=0;left=0;right=0;bottom=0;rounded=0;sketch=0;fontSize=17;fontColor=#5AA9E6;strokeColor=#FF6392;" vertex="1" parent="iPytQXrafnWmTLizvr8M-4">
          <mxGeometry y="60" width="180" height="30" as="geometry" />
        </mxCell>
        <mxCell id="iPytQXrafnWmTLizvr8M-9" value="" style="shape=partialRectangle;connectable=0;fillColor=none;top=0;left=0;bottom=0;right=0;editable=1;overflow=hidden;rounded=0;sketch=0;fontSize=17;fontColor=#5AA9E6;strokeColor=#FF6392;" vertex="1" parent="iPytQXrafnWmTLizvr8M-8">
          <mxGeometry width="30" height="30" as="geometry">
            <mxRectangle width="30" height="30" as="alternateBounds" />
          </mxGeometry>
        </mxCell>
        <mxCell id="iPytQXrafnWmTLizvr8M-10" value="Type" style="shape=partialRectangle;connectable=0;fillColor=none;top=0;left=0;bottom=0;right=0;align=left;spacingLeft=6;overflow=hidden;rounded=0;sketch=0;fontSize=17;fontColor=#5AA9E6;strokeColor=#FF6392;" vertex="1" parent="iPytQXrafnWmTLizvr8M-8">
          <mxGeometry x="30" width="150" height="30" as="geometry">
            <mxRectangle width="150" height="30" as="alternateBounds" />
          </mxGeometry>
        </mxCell>
        <mxCell id="iPytQXrafnWmTLizvr8M-11" value="" style="shape=tableRow;horizontal=0;startSize=0;swimlaneHead=0;swimlaneBody=0;fillColor=none;collapsible=0;dropTarget=0;points=[[0,0.5],[1,0.5]];portConstraint=eastwest;top=0;left=0;right=0;bottom=0;rounded=0;sketch=0;fontSize=17;fontColor=#5AA9E6;strokeColor=#FF6392;" vertex="1" parent="iPytQXrafnWmTLizvr8M-4">
          <mxGeometry y="90" width="180" height="30" as="geometry" />
        </mxCell>
        <mxCell id="iPytQXrafnWmTLizvr8M-12" value="" style="shape=partialRectangle;connectable=0;fillColor=none;top=0;left=0;bottom=0;right=0;editable=1;overflow=hidden;rounded=0;sketch=0;fontSize=17;fontColor=#5AA9E6;strokeColor=#FF6392;" vertex="1" parent="iPytQXrafnWmTLizvr8M-11">
          <mxGeometry width="30" height="30" as="geometry">
            <mxRectangle width="30" height="30" as="alternateBounds" />
          </mxGeometry>
        </mxCell>
        <mxCell id="iPytQXrafnWmTLizvr8M-13" value="Description" style="shape=partialRectangle;connectable=0;fillColor=none;top=0;left=0;bottom=0;right=0;align=left;spacingLeft=6;overflow=hidden;rounded=0;sketch=0;fontSize=17;fontColor=#5AA9E6;strokeColor=#FF6392;" vertex="1" parent="iPytQXrafnWmTLizvr8M-11">
          <mxGeometry x="30" width="150" height="30" as="geometry">
            <mxRectangle width="150" height="30" as="alternateBounds" />
          </mxGeometry>
        </mxCell>
        <mxCell id="iPytQXrafnWmTLizvr8M-14" value="" style="shape=tableRow;horizontal=0;startSize=0;swimlaneHead=0;swimlaneBody=0;fillColor=none;collapsible=0;dropTarget=0;points=[[0,0.5],[1,0.5]];portConstraint=eastwest;top=0;left=0;right=0;bottom=0;rounded=0;sketch=0;fontSize=17;fontColor=#5AA9E6;strokeColor=#FF6392;" vertex="1" parent="iPytQXrafnWmTLizvr8M-4">
          <mxGeometry y="120" width="180" height="36" as="geometry" />
        </mxCell>
        <mxCell id="iPytQXrafnWmTLizvr8M-15" value="" style="shape=partialRectangle;connectable=0;fillColor=none;top=0;left=0;bottom=0;right=0;editable=1;overflow=hidden;rounded=0;sketch=0;fontSize=17;fontColor=#5AA9E6;strokeColor=#FF6392;" vertex="1" parent="iPytQXrafnWmTLizvr8M-14">
          <mxGeometry width="30" height="36" as="geometry">
            <mxRectangle width="30" height="36" as="alternateBounds" />
          </mxGeometry>
        </mxCell>
        <mxCell id="iPytQXrafnWmTLizvr8M-16" value="Weight" style="shape=partialRectangle;connectable=0;fillColor=none;top=0;left=0;bottom=0;right=0;align=left;spacingLeft=6;overflow=hidden;rounded=0;sketch=0;fontSize=17;fontColor=#5AA9E6;strokeColor=#FF6392;" vertex="1" parent="iPytQXrafnWmTLizvr8M-14">
          <mxGeometry x="30" width="150" height="36" as="geometry">
            <mxRectangle width="150" height="36" as="alternateBounds" />
          </mxGeometry>
        </mxCell>
        <mxCell id="iPytQXrafnWmTLizvr8M-67" style="edgeStyle=none;rounded=1;sketch=0;orthogonalLoop=1;jettySize=auto;html=1;exitX=0.5;exitY=1;exitDx=0;exitDy=0;entryX=0.5;entryY=0;entryDx=0;entryDy=0;fontSize=16;fontColor=#5AA9E6;startArrow=ERzeroToMany;startFill=0;endArrow=ERmandOne;endFill=0;strokeColor=#FF6392;fillColor=#FFE45E;" edge="1" parent="iPytQXrafnWmTLizvr8M-1" source="iPytQXrafnWmTLizvr8M-17" target="iPytQXrafnWmTLizvr8M-30">
          <mxGeometry relative="1" as="geometry" />
        </mxCell>
        <mxCell id="iPytQXrafnWmTLizvr8M-68" value="Composes" style="edgeLabel;html=1;align=center;verticalAlign=middle;resizable=0;points=[];fontSize=16;fontColor=#5AA9E6;" vertex="1" connectable="0" parent="iPytQXrafnWmTLizvr8M-67">
          <mxGeometry x="0.0557" y="1" relative="1" as="geometry">
            <mxPoint as="offset" />
          </mxGeometry>
        </mxCell>
        <mxCell id="iPytQXrafnWmTLizvr8M-17" value="SHIPMENT LINE" style="shape=table;startSize=30;container=1;collapsible=1;childLayout=tableLayout;fixedRows=1;rowLines=0;fontStyle=1;align=center;resizeLast=1;rounded=0;sketch=0;fontSize=17;fontColor=#5AA9E6;strokeColor=#FF6392;fillColor=#FFE45E;" vertex="1" parent="iPytQXrafnWmTLizvr8M-1">
          <mxGeometry x="535" y="63" width="226" height="137.75" as="geometry" />
        </mxCell>
        <mxCell id="iPytQXrafnWmTLizvr8M-18" value="" style="shape=tableRow;horizontal=0;startSize=0;swimlaneHead=0;swimlaneBody=0;fillColor=none;collapsible=0;dropTarget=0;points=[[0,0.5],[1,0.5]];portConstraint=eastwest;top=0;left=0;right=0;bottom=0;rounded=0;sketch=0;fontSize=17;fontColor=#5AA9E6;strokeColor=#FF6392;" vertex="1" parent="iPytQXrafnWmTLizvr8M-17">
          <mxGeometry y="30" width="226" height="30" as="geometry" />
        </mxCell>
        <mxCell id="iPytQXrafnWmTLizvr8M-19" value="PK,FK1" style="shape=partialRectangle;connectable=0;fillColor=none;top=0;left=0;bottom=0;right=0;fontStyle=1;overflow=hidden;rounded=0;sketch=0;fontSize=16;fontColor=#5AA9E6;strokeColor=#FF6392;" vertex="1" parent="iPytQXrafnWmTLizvr8M-18">
          <mxGeometry width="60" height="30" as="geometry">
            <mxRectangle width="60" height="30" as="alternateBounds" />
          </mxGeometry>
        </mxCell>
        <mxCell id="iPytQXrafnWmTLizvr8M-20" value="Shipment ID" style="shape=partialRectangle;connectable=0;fillColor=none;top=0;left=0;bottom=0;right=0;align=left;spacingLeft=6;fontStyle=5;overflow=hidden;rounded=0;sketch=0;fontSize=17;fontColor=#5AA9E6;strokeColor=#FF6392;" vertex="1" parent="iPytQXrafnWmTLizvr8M-18">
          <mxGeometry x="60" width="166" height="30" as="geometry">
            <mxRectangle width="166" height="30" as="alternateBounds" />
          </mxGeometry>
        </mxCell>
        <mxCell id="iPytQXrafnWmTLizvr8M-21" value="" style="shape=tableRow;horizontal=0;startSize=0;swimlaneHead=0;swimlaneBody=0;fillColor=none;collapsible=0;dropTarget=0;points=[[0,0.5],[1,0.5]];portConstraint=eastwest;top=0;left=0;right=0;bottom=1;rounded=0;sketch=0;fontSize=17;fontColor=#5AA9E6;strokeColor=#FF6392;" vertex="1" parent="iPytQXrafnWmTLizvr8M-17">
          <mxGeometry y="60" width="226" height="30" as="geometry" />
        </mxCell>
        <mxCell id="iPytQXrafnWmTLizvr8M-22" value="PK,FK2" style="shape=partialRectangle;connectable=0;fillColor=none;top=0;left=0;bottom=0;right=0;fontStyle=1;overflow=hidden;rounded=0;sketch=0;fontSize=16;fontColor=#5AA9E6;strokeColor=#FF6392;" vertex="1" parent="iPytQXrafnWmTLizvr8M-21">
          <mxGeometry width="60" height="30" as="geometry">
            <mxRectangle width="60" height="30" as="alternateBounds" />
          </mxGeometry>
        </mxCell>
        <mxCell id="iPytQXrafnWmTLizvr8M-23" value="Item Number" style="shape=partialRectangle;connectable=0;fillColor=none;top=0;left=0;bottom=0;right=0;align=left;spacingLeft=6;fontStyle=5;overflow=hidden;rounded=0;sketch=0;fontSize=17;fontColor=#5AA9E6;strokeColor=#FF6392;" vertex="1" parent="iPytQXrafnWmTLizvr8M-21">
          <mxGeometry x="60" width="166" height="30" as="geometry">
            <mxRectangle width="166" height="30" as="alternateBounds" />
          </mxGeometry>
        </mxCell>
        <mxCell id="iPytQXrafnWmTLizvr8M-24" value="" style="shape=tableRow;horizontal=0;startSize=0;swimlaneHead=0;swimlaneBody=0;fillColor=none;collapsible=0;dropTarget=0;points=[[0,0.5],[1,0.5]];portConstraint=eastwest;top=0;left=0;right=0;bottom=0;rounded=0;sketch=0;fontSize=17;fontColor=#5AA9E6;strokeColor=#FF6392;" vertex="1" parent="iPytQXrafnWmTLizvr8M-17">
          <mxGeometry y="90" width="226" height="30" as="geometry" />
        </mxCell>
        <mxCell id="iPytQXrafnWmTLizvr8M-25" value="" style="shape=partialRectangle;connectable=0;fillColor=none;top=0;left=0;bottom=0;right=0;editable=1;overflow=hidden;rounded=0;sketch=0;fontSize=17;fontColor=#5AA9E6;strokeColor=#FF6392;" vertex="1" parent="iPytQXrafnWmTLizvr8M-24">
          <mxGeometry width="60" height="30" as="geometry">
            <mxRectangle width="60" height="30" as="alternateBounds" />
          </mxGeometry>
        </mxCell>
        <mxCell id="iPytQXrafnWmTLizvr8M-26" value="Quantity" style="shape=partialRectangle;connectable=0;fillColor=none;top=0;left=0;bottom=0;right=0;align=left;spacingLeft=6;overflow=hidden;rounded=0;sketch=0;fontSize=17;fontColor=#5AA9E6;strokeColor=#FF6392;" vertex="1" parent="iPytQXrafnWmTLizvr8M-24">
          <mxGeometry x="60" width="166" height="30" as="geometry">
            <mxRectangle width="166" height="30" as="alternateBounds" />
          </mxGeometry>
        </mxCell>
        <mxCell id="iPytQXrafnWmTLizvr8M-30" value="SHIPMENT" style="shape=table;startSize=30;container=1;collapsible=1;childLayout=tableLayout;fixedRows=1;rowLines=0;fontStyle=1;align=center;resizeLast=1;rounded=0;sketch=0;fontSize=16;fontColor=#5AA9E6;strokeColor=#FF6392;fillColor=#FFE45E;" vertex="1" parent="iPytQXrafnWmTLizvr8M-1">
          <mxGeometry x="535" y="385" width="229" height="250" as="geometry" />
        </mxCell>
        <mxCell id="iPytQXrafnWmTLizvr8M-31" value="" style="shape=tableRow;horizontal=0;startSize=0;swimlaneHead=0;swimlaneBody=0;fillColor=none;collapsible=0;dropTarget=0;points=[[0,0.5],[1,0.5]];portConstraint=eastwest;top=0;left=0;right=0;bottom=1;rounded=0;sketch=0;fontSize=16;fontColor=#5AA9E6;strokeColor=#FF6392;" vertex="1" parent="iPytQXrafnWmTLizvr8M-30">
          <mxGeometry y="30" width="229" height="30" as="geometry" />
        </mxCell>
        <mxCell id="iPytQXrafnWmTLizvr8M-32" value="PK" style="shape=partialRectangle;connectable=0;fillColor=none;top=0;left=0;bottom=0;right=0;fontStyle=1;overflow=hidden;rounded=0;sketch=0;fontSize=16;fontColor=#5AA9E6;strokeColor=#FF6392;" vertex="1" parent="iPytQXrafnWmTLizvr8M-31">
          <mxGeometry width="30" height="30" as="geometry">
            <mxRectangle width="30" height="30" as="alternateBounds" />
          </mxGeometry>
        </mxCell>
        <mxCell id="iPytQXrafnWmTLizvr8M-33" value="Shipment ID" style="shape=partialRectangle;connectable=0;fillColor=none;top=0;left=0;bottom=0;right=0;align=left;spacingLeft=6;fontStyle=5;overflow=hidden;rounded=0;sketch=0;fontSize=16;fontColor=#5AA9E6;strokeColor=#FF6392;" vertex="1" parent="iPytQXrafnWmTLizvr8M-31">
          <mxGeometry x="30" width="199" height="30" as="geometry">
            <mxRectangle width="199" height="30" as="alternateBounds" />
          </mxGeometry>
        </mxCell>
        <mxCell id="iPytQXrafnWmTLizvr8M-34" value="" style="shape=tableRow;horizontal=0;startSize=0;swimlaneHead=0;swimlaneBody=0;fillColor=none;collapsible=0;dropTarget=0;points=[[0,0.5],[1,0.5]];portConstraint=eastwest;top=0;left=0;right=0;bottom=0;rounded=0;sketch=0;fontSize=16;fontColor=#5AA9E6;strokeColor=#FF6392;" vertex="1" parent="iPytQXrafnWmTLizvr8M-30">
          <mxGeometry y="60" width="229" height="30" as="geometry" />
        </mxCell>
        <mxCell id="iPytQXrafnWmTLizvr8M-35" value="" style="shape=partialRectangle;connectable=0;fillColor=none;top=0;left=0;bottom=0;right=0;editable=1;overflow=hidden;rounded=0;sketch=0;fontSize=16;fontColor=#5AA9E6;strokeColor=#FF6392;" vertex="1" parent="iPytQXrafnWmTLizvr8M-34">
          <mxGeometry width="30" height="30" as="geometry">
            <mxRectangle width="30" height="30" as="alternateBounds" />
          </mxGeometry>
        </mxCell>
        <mxCell id="iPytQXrafnWmTLizvr8M-36" value="Origin" style="shape=partialRectangle;connectable=0;fillColor=none;top=0;left=0;bottom=0;right=0;align=left;spacingLeft=6;overflow=hidden;rounded=0;sketch=0;fontSize=16;fontColor=#5AA9E6;strokeColor=#FF6392;" vertex="1" parent="iPytQXrafnWmTLizvr8M-34">
          <mxGeometry x="30" width="199" height="30" as="geometry">
            <mxRectangle width="199" height="30" as="alternateBounds" />
          </mxGeometry>
        </mxCell>
        <mxCell id="iPytQXrafnWmTLizvr8M-37" value="" style="shape=tableRow;horizontal=0;startSize=0;swimlaneHead=0;swimlaneBody=0;fillColor=none;collapsible=0;dropTarget=0;points=[[0,0.5],[1,0.5]];portConstraint=eastwest;top=0;left=0;right=0;bottom=0;rounded=0;sketch=0;fontSize=16;fontColor=#5AA9E6;strokeColor=#FF6392;" vertex="1" parent="iPytQXrafnWmTLizvr8M-30">
          <mxGeometry y="90" width="229" height="30" as="geometry" />
        </mxCell>
        <mxCell id="iPytQXrafnWmTLizvr8M-38" value="" style="shape=partialRectangle;connectable=0;fillColor=none;top=0;left=0;bottom=0;right=0;editable=1;overflow=hidden;rounded=0;sketch=0;fontSize=16;fontColor=#5AA9E6;strokeColor=#FF6392;" vertex="1" parent="iPytQXrafnWmTLizvr8M-37">
          <mxGeometry width="30" height="30" as="geometry">
            <mxRectangle width="30" height="30" as="alternateBounds" />
          </mxGeometry>
        </mxCell>
        <mxCell id="iPytQXrafnWmTLizvr8M-39" value="Ship Number" style="shape=partialRectangle;connectable=0;fillColor=none;top=0;left=0;bottom=0;right=0;align=left;spacingLeft=6;overflow=hidden;rounded=0;sketch=0;fontSize=16;fontColor=#5AA9E6;strokeColor=#FF6392;" vertex="1" parent="iPytQXrafnWmTLizvr8M-37">
          <mxGeometry x="30" width="199" height="30" as="geometry">
            <mxRectangle width="199" height="30" as="alternateBounds" />
          </mxGeometry>
        </mxCell>
        <mxCell id="iPytQXrafnWmTLizvr8M-40" value="" style="shape=tableRow;horizontal=0;startSize=0;swimlaneHead=0;swimlaneBody=0;fillColor=none;collapsible=0;dropTarget=0;points=[[0,0.5],[1,0.5]];portConstraint=eastwest;top=0;left=0;right=0;bottom=0;rounded=0;sketch=0;fontSize=16;fontColor=#5AA9E6;strokeColor=#FF6392;" vertex="1" parent="iPytQXrafnWmTLizvr8M-30">
          <mxGeometry y="120" width="229" height="30" as="geometry" />
        </mxCell>
        <mxCell id="iPytQXrafnWmTLizvr8M-41" value="" style="shape=partialRectangle;connectable=0;fillColor=none;top=0;left=0;bottom=0;right=0;editable=1;overflow=hidden;rounded=0;sketch=0;fontSize=16;fontColor=#5AA9E6;strokeColor=#FF6392;" vertex="1" parent="iPytQXrafnWmTLizvr8M-40">
          <mxGeometry width="30" height="30" as="geometry">
            <mxRectangle width="30" height="30" as="alternateBounds" />
          </mxGeometry>
        </mxCell>
        <mxCell id="iPytQXrafnWmTLizvr8M-42" value="Expected Arrival Date" style="shape=partialRectangle;connectable=0;fillColor=none;top=0;left=0;bottom=0;right=0;align=left;spacingLeft=6;overflow=hidden;rounded=0;sketch=0;fontSize=16;fontColor=#5AA9E6;strokeColor=#FF6392;" vertex="1" parent="iPytQXrafnWmTLizvr8M-40">
          <mxGeometry x="30" width="199" height="30" as="geometry">
            <mxRectangle width="199" height="30" as="alternateBounds" />
          </mxGeometry>
        </mxCell>
        <mxCell id="iPytQXrafnWmTLizvr8M-58" value="" style="shape=tableRow;horizontal=0;startSize=0;swimlaneHead=0;swimlaneBody=0;fillColor=none;collapsible=0;dropTarget=0;points=[[0,0.5],[1,0.5]];portConstraint=eastwest;top=0;left=0;right=0;bottom=0;rounded=0;sketch=0;fontSize=16;fontColor=#5AA9E6;strokeColor=#FF6392;" vertex="1" parent="iPytQXrafnWmTLizvr8M-30">
          <mxGeometry y="150" width="229" height="30" as="geometry" />
        </mxCell>
        <mxCell id="iPytQXrafnWmTLizvr8M-59" value="" style="shape=partialRectangle;connectable=0;fillColor=none;top=0;left=0;bottom=0;right=0;editable=1;overflow=hidden;rounded=0;sketch=0;fontSize=16;fontColor=#5AA9E6;strokeColor=#FF6392;" vertex="1" parent="iPytQXrafnWmTLizvr8M-58">
          <mxGeometry width="30" height="30" as="geometry">
            <mxRectangle width="30" height="30" as="alternateBounds" />
          </mxGeometry>
        </mxCell>
        <mxCell id="iPytQXrafnWmTLizvr8M-60" value="Destination" style="shape=partialRectangle;connectable=0;fillColor=none;top=0;left=0;bottom=0;right=0;align=left;spacingLeft=6;overflow=hidden;rounded=0;sketch=0;fontSize=16;fontColor=#5AA9E6;strokeColor=#FF6392;" vertex="1" parent="iPytQXrafnWmTLizvr8M-58">
          <mxGeometry x="30" width="199" height="30" as="geometry">
            <mxRectangle width="199" height="30" as="alternateBounds" />
          </mxGeometry>
        </mxCell>
        <mxCell id="iPytQXrafnWmTLizvr8M-61" value="" style="shape=tableRow;horizontal=0;startSize=0;swimlaneHead=0;swimlaneBody=0;fillColor=none;collapsible=0;dropTarget=0;points=[[0,0.5],[1,0.5]];portConstraint=eastwest;top=0;left=0;right=0;bottom=0;rounded=0;sketch=0;fontSize=16;fontColor=#5AA9E6;strokeColor=#FF6392;" vertex="1" parent="iPytQXrafnWmTLizvr8M-30">
          <mxGeometry y="180" width="229" height="30" as="geometry" />
        </mxCell>
        <mxCell id="iPytQXrafnWmTLizvr8M-62" value="" style="shape=partialRectangle;connectable=0;fillColor=none;top=0;left=0;bottom=0;right=0;editable=1;overflow=hidden;rounded=0;sketch=0;fontSize=16;fontColor=#5AA9E6;strokeColor=#FF6392;" vertex="1" parent="iPytQXrafnWmTLizvr8M-61">
          <mxGeometry width="30" height="30" as="geometry">
            <mxRectangle width="30" height="30" as="alternateBounds" />
          </mxGeometry>
        </mxCell>
        <mxCell id="iPytQXrafnWmTLizvr8M-63" value="Shipment Date " style="shape=partialRectangle;connectable=0;fillColor=none;top=0;left=0;bottom=0;right=0;align=left;spacingLeft=6;overflow=hidden;rounded=0;sketch=0;fontSize=16;fontColor=#5AA9E6;strokeColor=#FF6392;" vertex="1" parent="iPytQXrafnWmTLizvr8M-61">
          <mxGeometry x="30" width="199" height="30" as="geometry">
            <mxRectangle width="199" height="30" as="alternateBounds" />
          </mxGeometry>
        </mxCell>
        <mxCell id="iPytQXrafnWmTLizvr8M-64" value="" style="shape=tableRow;horizontal=0;startSize=0;swimlaneHead=0;swimlaneBody=0;fillColor=none;collapsible=0;dropTarget=0;points=[[0,0.5],[1,0.5]];portConstraint=eastwest;top=0;left=0;right=0;bottom=0;rounded=0;sketch=0;fontSize=16;fontColor=#5AA9E6;strokeColor=#FF6392;" vertex="1" parent="iPytQXrafnWmTLizvr8M-30">
          <mxGeometry y="210" width="229" height="30" as="geometry" />
        </mxCell>
        <mxCell id="iPytQXrafnWmTLizvr8M-65" value="FK" style="shape=partialRectangle;connectable=0;fillColor=none;top=0;left=0;bottom=0;right=0;editable=1;overflow=hidden;rounded=0;sketch=0;fontSize=16;fontColor=#5AA9E6;strokeColor=#FF6392;fontStyle=1" vertex="1" parent="iPytQXrafnWmTLizvr8M-64">
          <mxGeometry width="30" height="30" as="geometry">
            <mxRectangle width="30" height="30" as="alternateBounds" />
          </mxGeometry>
        </mxCell>
        <mxCell id="iPytQXrafnWmTLizvr8M-66" value="Captain ID" style="shape=partialRectangle;connectable=0;fillColor=none;top=0;left=0;bottom=0;right=0;align=left;spacingLeft=6;overflow=hidden;rounded=0;sketch=0;fontSize=16;fontColor=#5AA9E6;strokeColor=#FF6392;" vertex="1" parent="iPytQXrafnWmTLizvr8M-64">
          <mxGeometry x="30" width="199" height="30" as="geometry">
            <mxRectangle width="199" height="30" as="alternateBounds" />
          </mxGeometry>
        </mxCell>
        <mxCell id="iPytQXrafnWmTLizvr8M-43" value="CAPTAIN" style="shape=table;startSize=30;container=1;collapsible=1;childLayout=tableLayout;fixedRows=1;rowLines=0;fontStyle=1;align=center;resizeLast=1;rounded=0;sketch=0;fontSize=16;fontColor=#5AA9E6;strokeColor=#FF6392;fillColor=#FFE45E;" vertex="1" parent="iPytQXrafnWmTLizvr8M-1">
          <mxGeometry x="126" y="385" width="180" height="100" as="geometry" />
        </mxCell>
        <mxCell id="iPytQXrafnWmTLizvr8M-44" value="" style="shape=tableRow;horizontal=0;startSize=0;swimlaneHead=0;swimlaneBody=0;fillColor=none;collapsible=0;dropTarget=0;points=[[0,0.5],[1,0.5]];portConstraint=eastwest;top=0;left=0;right=0;bottom=1;rounded=0;sketch=0;fontSize=16;fontColor=#5AA9E6;strokeColor=#FF6392;" vertex="1" parent="iPytQXrafnWmTLizvr8M-43">
          <mxGeometry y="30" width="180" height="30" as="geometry" />
        </mxCell>
        <mxCell id="iPytQXrafnWmTLizvr8M-45" value="PK" style="shape=partialRectangle;connectable=0;fillColor=none;top=0;left=0;bottom=0;right=0;fontStyle=1;overflow=hidden;rounded=0;sketch=0;fontSize=16;fontColor=#5AA9E6;strokeColor=#FF6392;" vertex="1" parent="iPytQXrafnWmTLizvr8M-44">
          <mxGeometry width="30" height="30" as="geometry">
            <mxRectangle width="30" height="30" as="alternateBounds" />
          </mxGeometry>
        </mxCell>
        <mxCell id="iPytQXrafnWmTLizvr8M-46" value="Captain ID" style="shape=partialRectangle;connectable=0;fillColor=none;top=0;left=0;bottom=0;right=0;align=left;spacingLeft=6;fontStyle=5;overflow=hidden;rounded=0;sketch=0;fontSize=16;fontColor=#5AA9E6;strokeColor=#FF6392;" vertex="1" parent="iPytQXrafnWmTLizvr8M-44">
          <mxGeometry x="30" width="150" height="30" as="geometry">
            <mxRectangle width="150" height="30" as="alternateBounds" />
          </mxGeometry>
        </mxCell>
        <mxCell id="iPytQXrafnWmTLizvr8M-47" value="" style="shape=tableRow;horizontal=0;startSize=0;swimlaneHead=0;swimlaneBody=0;fillColor=none;collapsible=0;dropTarget=0;points=[[0,0.5],[1,0.5]];portConstraint=eastwest;top=0;left=0;right=0;bottom=0;rounded=0;sketch=0;fontSize=16;fontColor=#5AA9E6;strokeColor=#FF6392;" vertex="1" parent="iPytQXrafnWmTLizvr8M-43">
          <mxGeometry y="60" width="180" height="30" as="geometry" />
        </mxCell>
        <mxCell id="iPytQXrafnWmTLizvr8M-48" value="" style="shape=partialRectangle;connectable=0;fillColor=none;top=0;left=0;bottom=0;right=0;editable=1;overflow=hidden;rounded=0;sketch=0;fontSize=16;fontColor=#5AA9E6;strokeColor=#FF6392;" vertex="1" parent="iPytQXrafnWmTLizvr8M-47">
          <mxGeometry width="30" height="30" as="geometry">
            <mxRectangle width="30" height="30" as="alternateBounds" />
          </mxGeometry>
        </mxCell>
        <mxCell id="iPytQXrafnWmTLizvr8M-49" value="Captain Name " style="shape=partialRectangle;connectable=0;fillColor=none;top=0;left=0;bottom=0;right=0;align=left;spacingLeft=6;overflow=hidden;rounded=0;sketch=0;fontSize=16;fontColor=#5AA9E6;strokeColor=#FF6392;" vertex="1" parent="iPytQXrafnWmTLizvr8M-47">
          <mxGeometry x="30" width="150" height="30" as="geometry">
            <mxRectangle width="150" height="30" as="alternateBounds" />
          </mxGeometry>
        </mxCell>
        <mxCell id="iPytQXrafnWmTLizvr8M-56" style="rounded=1;sketch=0;orthogonalLoop=1;jettySize=auto;html=1;exitX=1;exitY=0.5;exitDx=0;exitDy=0;entryX=0;entryY=0.5;entryDx=0;entryDy=0;fontSize=16;fontColor=#5AA9E6;startArrow=ERmandOne;startFill=0;endArrow=ERzeroToMany;endFill=0;strokeColor=#FF6392;fillColor=#FFE45E;" edge="1" parent="iPytQXrafnWmTLizvr8M-1" source="iPytQXrafnWmTLizvr8M-11" target="iPytQXrafnWmTLizvr8M-24">
          <mxGeometry relative="1" as="geometry" />
        </mxCell>
        <mxCell id="iPytQXrafnWmTLizvr8M-69" value="Is Part Of" style="edgeLabel;html=1;align=center;verticalAlign=middle;resizable=0;points=[];fontSize=16;fontColor=#5AA9E6;" vertex="1" connectable="0" parent="iPytQXrafnWmTLizvr8M-56">
          <mxGeometry x="-0.1619" y="-4" relative="1" as="geometry">
            <mxPoint as="offset" />
          </mxGeometry>
        </mxCell>
        <mxCell id="iPytQXrafnWmTLizvr8M-70" style="edgeStyle=none;rounded=1;sketch=0;orthogonalLoop=1;jettySize=auto;html=1;exitX=1;exitY=0.5;exitDx=0;exitDy=0;entryX=0;entryY=0.5;entryDx=0;entryDy=0;fontSize=16;fontColor=#5AA9E6;startArrow=ERmandOne;startFill=0;endArrow=ERzeroToMany;endFill=0;strokeColor=#FF6392;fillColor=#FFE45E;dashed=1;" edge="1" parent="iPytQXrafnWmTLizvr8M-1" source="iPytQXrafnWmTLizvr8M-44" target="iPytQXrafnWmTLizvr8M-31">
          <mxGeometry relative="1" as="geometry" />
        </mxCell>
        <mxCell id="iPytQXrafnWmTLizvr8M-71" value="Pilots" style="edgeLabel;html=1;align=center;verticalAlign=middle;resizable=0;points=[];fontSize=16;fontColor=#5AA9E6;" vertex="1" connectable="0" parent="iPytQXrafnWmTLizvr8M-70">
          <mxGeometry x="0.1179" y="1" relative="1" as="geometry">
            <mxPoint as="offset" />
          </mxGeometry>
        </mxCell>
      </root>
    </mxGraphModel>
  </diagram>
</mxfile>
